<svg width="213" height="69" viewBox="0 0 213 69" fill="none" xmlns="http://www.w3.org/2000/svg">
<path d="M24.874 40.414H13.198L11.266 46H5.092L15.634 16.642H22.48L33.022 46H26.806L24.874 40.414ZM23.278 35.71L19.036 23.446L14.794 35.71H23.278ZM53.5945 30.964C55.2465 31.272 56.6045 32.098 57.6685 33.442C58.7325 34.786 59.2645 36.326 59.2645 38.062C59.2645 39.63 58.8725 41.016 58.0885 42.22C57.3325 43.396 56.2265 44.32 54.7705 44.992C53.3145 45.664 51.5925 46 49.6045 46H36.9625V16.684H49.0585C51.0465 16.684 52.7545 17.006 54.1825 17.65C55.6385 18.294 56.7305 19.19 57.4585 20.338C58.2145 21.486 58.5925 22.788 58.5925 24.244C58.5925 25.952 58.1305 27.38 57.2065 28.528C56.3105 29.676 55.1065 30.488 53.5945 30.964ZM42.8425 28.78H48.2185C49.6185 28.78 50.6965 28.472 51.4525 27.856C52.2085 27.212 52.5865 26.302 52.5865 25.126C52.5865 23.95 52.2085 23.04 51.4525 22.396C50.6965 21.752 49.6185 21.43 48.2185 21.43H42.8425V28.78ZM48.7645 41.212C50.1925 41.212 51.2985 40.876 52.0825 40.204C52.8945 39.532 53.3005 38.58 53.3005 37.348C53.3005 36.088 52.8805 35.108 52.0405 34.408C51.2005 33.68 50.0665 33.316 48.6385 33.316H42.8425V41.212H48.7645ZM77.5587 46.294C74.8147 46.294 72.2947 45.65 69.9987 44.362C67.7027 43.074 65.8827 41.296 64.5387 39.028C63.1947 36.732 62.5227 34.142 62.5227 31.258C62.5227 28.402 63.1947 25.84 64.5387 23.572C65.8827 21.276 67.7027 19.484 69.9987 18.196C72.2947 16.908 74.8147 16.264 77.5587 16.264C80.3307 16.264 82.8507 16.908 85.1187 18.196C87.4147 19.484 89.2207 21.276 90.5367 23.572C91.8807 25.84 92.5527 28.402 92.5527 31.258C92.5527 34.142 91.8807 36.732 90.5367 39.028C89.2207 41.296 87.4147 43.074 85.1187 44.362C82.8227 45.65 80.3027 46.294 77.5587 46.294ZM77.5587 41.044C79.3227 41.044 80.8767 40.652 82.2207 39.868C83.5647 39.056 84.6147 37.908 85.3707 36.424C86.1267 34.94 86.5047 33.218 86.5047 31.258C86.5047 29.298 86.1267 27.59 85.3707 26.134C84.6147 24.65 83.5647 23.516 82.2207 22.732C80.8767 21.948 79.3227 21.556 77.5587 21.556C75.7947 21.556 74.2267 21.948 72.8547 22.732C71.5107 23.516 70.4607 24.65 69.7047 26.134C68.9487 27.59 68.5707 29.298 68.5707 31.258C68.5707 33.218 68.9487 34.94 69.7047 36.424C70.4607 37.908 71.5107 39.056 72.8547 39.868C74.2267 40.652 75.7947 41.044 77.5587 41.044ZM102.723 16.684V34.828C102.723 36.816 103.241 38.342 104.277 39.406C105.313 40.442 106.769 40.96 108.645 40.96C110.549 40.96 112.019 40.442 113.055 39.406C114.091 38.342 114.609 36.816 114.609 34.828V16.684H120.531V34.786C120.531 37.278 119.985 39.392 118.893 41.128C117.829 42.836 116.387 44.124 114.567 44.992C112.775 45.86 110.773 46.294 108.561 46.294C106.377 46.294 104.389 45.86 102.597 44.992C100.833 44.124 99.4333 42.836 98.3973 41.128C97.3613 39.392 96.8433 37.278 96.8433 34.786V16.684H102.723ZM146.162 16.684V21.43H138.35V46H132.47V21.43H124.658V16.684H146.162ZM166.257 16.684V34.828C166.257 36.816 166.775 38.342 167.811 39.406C168.847 40.442 170.303 40.96 172.179 40.96C174.083 40.96 175.553 40.442 176.589 39.406C177.625 38.342 178.143 36.816 178.143 34.828V16.684H184.065V34.786C184.065 37.278 183.519 39.392 182.427 41.128C181.363 42.836 179.921 44.124 178.101 44.992C176.309 45.86 174.307 46.294 172.095 46.294C169.911 46.294 167.923 45.86 166.131 44.992C164.367 44.124 162.967 42.836 161.931 41.128C160.895 39.392 160.377 37.278 160.377 34.786V16.684H166.257ZM199.868 46.294C197.824 46.294 195.976 45.944 194.324 45.244C192.7 44.544 191.412 43.536 190.46 42.22C189.508 40.904 189.018 39.35 188.99 37.558H195.29C195.374 38.762 195.794 39.714 196.55 40.414C197.334 41.114 198.398 41.464 199.742 41.464C201.114 41.464 202.192 41.142 202.976 40.498C203.76 39.826 204.152 38.958 204.152 37.894C204.152 37.026 203.886 36.312 203.354 35.752C202.822 35.192 202.15 34.758 201.338 34.45C200.554 34.114 199.462 33.75 198.062 33.358C196.158 32.798 194.604 32.252 193.4 31.72C192.224 31.16 191.202 30.334 190.334 29.242C189.494 28.122 189.074 26.638 189.074 24.79C189.074 23.054 189.508 21.542 190.376 20.254C191.244 18.966 192.462 17.986 194.03 17.314C195.598 16.614 197.39 16.264 199.406 16.264C202.43 16.264 204.88 17.006 206.756 18.49C208.66 19.946 209.71 21.99 209.906 24.622H203.438C203.382 23.614 202.948 22.788 202.136 22.144C201.352 21.472 200.302 21.136 198.986 21.136C197.838 21.136 196.914 21.43 196.214 22.018C195.542 22.606 195.206 23.46 195.206 24.58C195.206 25.364 195.458 26.022 195.962 26.554C196.494 27.058 197.138 27.478 197.894 27.814C198.678 28.122 199.77 28.486 201.17 28.906C203.074 29.466 204.628 30.026 205.832 30.586C207.036 31.146 208.072 31.986 208.94 33.106C209.808 34.226 210.242 35.696 210.242 37.516C210.242 39.084 209.836 40.54 209.024 41.884C208.212 43.228 207.022 44.306 205.454 45.118C203.886 45.902 202.024 46.294 199.868 46.294Z" fill="#CBCBCB"/>
<path d="M20.874 46.414H9.198L7.266 52H1.092L11.634 22.642H18.48L29.022 52H22.806L20.874 46.414ZM19.278 41.71L15.036 29.446L10.794 41.71H19.278ZM49.5945 36.964C51.2465 37.272 52.6045 38.098 53.6685 39.442C54.7325 40.786 55.2645 42.326 55.2645 44.062C55.2645 45.63 54.8725 47.016 54.0885 48.22C53.3325 49.396 52.2265 50.32 50.7705 50.992C49.3145 51.664 47.5925 52 45.6045 52H32.9625V22.684H45.0585C47.0465 22.684 48.7545 23.006 50.1825 23.65C51.6385 24.294 52.7305 25.19 53.4585 26.338C54.2145 27.486 54.5925 28.788 54.5925 30.244C54.5925 31.952 54.1305 33.38 53.2065 34.528C52.3105 35.676 51.1065 36.488 49.5945 36.964ZM38.8425 34.78H44.2185C45.6185 34.78 46.6965 34.472 47.4525 33.856C48.2085 33.212 48.5865 32.302 48.5865 31.126C48.5865 29.95 48.2085 29.04 47.4525 28.396C46.6965 27.752 45.6185 27.43 44.2185 27.43H38.8425V34.78ZM44.7645 47.212C46.1925 47.212 47.2985 46.876 48.0825 46.204C48.8945 45.532 49.3005 44.58 49.3005 43.348C49.3005 42.088 48.8805 41.108 48.0405 40.408C47.2005 39.68 46.0665 39.316 44.6385 39.316H38.8425V47.212H44.7645ZM73.5587 52.294C70.8147 52.294 68.2947 51.65 65.9987 50.362C63.7027 49.074 61.8827 47.296 60.5387 45.028C59.1947 42.732 58.5227 40.142 58.5227 37.258C58.5227 34.402 59.1947 31.84 60.5387 29.572C61.8827 27.276 63.7027 25.484 65.9987 24.196C68.2947 22.908 70.8147 22.264 73.5587 22.264C76.3307 22.264 78.8507 22.908 81.1187 24.196C83.4147 25.484 85.2207 27.276 86.5367 29.572C87.8807 31.84 88.5527 34.402 88.5527 37.258C88.5527 40.142 87.8807 42.732 86.5367 45.028C85.2207 47.296 83.4147 49.074 81.1187 50.362C78.8227 51.65 76.3027 52.294 73.5587 52.294ZM73.5587 47.044C75.3227 47.044 76.8767 46.652 78.2207 45.868C79.5647 45.056 80.6147 43.908 81.3707 42.424C82.1267 40.94 82.5047 39.218 82.5047 37.258C82.5047 35.298 82.1267 33.59 81.3707 32.134C80.6147 30.65 79.5647 29.516 78.2207 28.732C76.8767 27.948 75.3227 27.556 73.5587 27.556C71.7947 27.556 70.2267 27.948 68.8547 28.732C67.5107 29.516 66.4607 30.65 65.7047 32.134C64.9487 33.59 64.5707 35.298 64.5707 37.258C64.5707 39.218 64.9487 40.94 65.7047 42.424C66.4607 43.908 67.5107 45.056 68.8547 45.868C70.2267 46.652 71.7947 47.044 73.5587 47.044ZM98.7233 22.684V40.828C98.7233 42.816 99.2413 44.342 100.277 45.406C101.313 46.442 102.769 46.96 104.645 46.96C106.549 46.96 108.019 46.442 109.055 45.406C110.091 44.342 110.609 42.816 110.609 40.828V22.684H116.531V40.786C116.531 43.278 115.985 45.392 114.893 47.128C113.829 48.836 112.387 50.124 110.567 50.992C108.775 51.86 106.773 52.294 104.561 52.294C102.377 52.294 100.389 51.86 98.5973 50.992C96.8333 50.124 95.4333 48.836 94.3973 47.128C93.3613 45.392 92.8433 43.278 92.8433 40.786V22.684H98.7233ZM142.162 22.684V27.43H134.35V52H128.47V27.43H120.658V22.684H142.162Z" fill="#0071BC"/>
<path d="M162.257 22.684V40.828C162.257 42.816 162.775 44.342 163.811 45.406C164.847 46.442 166.303 46.96 168.179 46.96C170.083 46.96 171.553 46.442 172.589 45.406C173.625 44.342 174.143 42.816 174.143 40.828V22.684H180.065V40.786C180.065 43.278 179.519 45.392 178.427 47.128C177.363 48.836 175.921 50.124 174.101 50.992C172.309 51.86 170.307 52.294 168.095 52.294C165.911 52.294 163.923 51.86 162.131 50.992C160.367 50.124 158.967 48.836 157.931 47.128C156.895 45.392 156.377 43.278 156.377 40.786V22.684H162.257ZM195.868 52.294C193.824 52.294 191.976 51.944 190.324 51.244C188.7 50.544 187.412 49.536 186.46 48.22C185.508 46.904 185.018 45.35 184.99 43.558H191.29C191.374 44.762 191.794 45.714 192.55 46.414C193.334 47.114 194.398 47.464 195.742 47.464C197.114 47.464 198.192 47.142 198.976 46.498C199.76 45.826 200.152 44.958 200.152 43.894C200.152 43.026 199.886 42.312 199.354 41.752C198.822 41.192 198.15 40.758 197.338 40.45C196.554 40.114 195.462 39.75 194.062 39.358C192.158 38.798 190.604 38.252 189.4 37.72C188.224 37.16 187.202 36.334 186.334 35.242C185.494 34.122 185.074 32.638 185.074 30.79C185.074 29.054 185.508 27.542 186.376 26.254C187.244 24.966 188.462 23.986 190.03 23.314C191.598 22.614 193.39 22.264 195.406 22.264C198.43 22.264 200.88 23.006 202.756 24.49C204.66 25.946 205.71 27.99 205.906 30.622H199.438C199.382 29.614 198.948 28.788 198.136 28.144C197.352 27.472 196.302 27.136 194.986 27.136C193.838 27.136 192.914 27.43 192.214 28.018C191.542 28.606 191.206 29.46 191.206 30.58C191.206 31.364 191.458 32.022 191.962 32.554C192.494 33.058 193.138 33.478 193.894 33.814C194.678 34.122 195.77 34.486 197.17 34.906C199.074 35.466 200.628 36.026 201.832 36.586C203.036 37.146 204.072 37.986 204.94 39.106C205.808 40.226 206.242 41.696 206.242 43.516C206.242 45.084 205.836 46.54 205.024 47.884C204.212 49.228 203.022 50.306 201.454 51.118C199.886 51.902 198.024 52.294 195.868 52.294Z" fill="#2B2B2B"/>
</svg>
