<svg width="50" height="50" viewBox="0 0 50 50" fill="none" xmlns="http://www.w3.org/2000/svg">
<path d="M45.8333 6.25H41.6667V4.16667C41.6656 3.06194 41.2262 2.00277 40.4451 1.22161C39.6639 0.440445 38.6047 0.00110308 37.5 0H12.5C11.3953 0.00110308 10.3361 0.440445 9.55494 1.22161C8.77378 2.00277 8.33444 3.06194 8.33333 4.16667V6.25H4.16667C3.06194 6.2511 2.00277 6.69044 1.22161 7.47161C0.440445 8.25277 0.00110308 9.31194 0 10.4167V16.6667C0.00275645 18.876 0.881615 20.994 2.44382 22.5562C4.00603 24.1184 6.12404 24.9972 8.33333 25H9.00417C9.8723 28.189 11.6502 31.0562 14.1208 33.2515C16.5914 35.4469 19.6477 36.8753 22.9167 37.3625V45.8333H12.5V50H37.5V45.8333H27.0833V37.3562C30.3947 36.9469 33.5058 35.5489 36.0107 33.3447C38.5155 31.1405 40.2978 28.2324 41.125 25H41.6667C43.876 24.9972 45.994 24.1184 47.5562 22.5562C49.1184 20.994 49.9972 18.876 50 16.6667V10.4167C49.9989 9.31194 49.5596 8.25277 48.7784 7.47161C47.9972 6.69044 46.9381 6.2511 45.8333 6.25ZM8.33333 20.8333C7.2286 20.8322 6.16944 20.3929 5.38827 19.6117C4.60711 18.8306 4.16777 17.7714 4.16667 16.6667V10.4167H8.33333V20.8333ZM45.8333 16.6667C45.8322 17.7714 45.3929 18.8306 44.6117 19.6117C43.8306 20.3929 42.7714 20.8322 41.6667 20.8333V10.4167H45.8333V16.6667Z" fill="white"/>
</svg>
