<svg width="207" height="56" viewBox="0 0 207 56" fill="none" xmlns="http://www.w3.org/2000/svg">
<path d="M24.6154 0C20.5662 0 17.2308 3.16167 17.2308 7V11.6667H22.1538V7C22.1538 5.68633 23.2295 4.66667 24.6154 4.66667H39.3846C40.7705 4.66667 41.8462 5.68633 41.8462 7V11.6667H46.7692V7C46.7692 3.16167 43.4338 0 39.3846 0H24.6154ZM7.38462 14C5.42609 14 3.54779 14.7375 2.1629 16.0503C0.77802 17.363 0 19.1435 0 21L0 49C0 50.8565 0.77802 52.637 2.1629 53.9497C3.54779 55.2625 5.42609 56 7.38462 56H56.6154C60.6917 56 64 52.864 64 49V21C64 19.1435 63.222 17.363 61.8371 16.0503C60.4522 14.7375 58.5739 14 56.6154 14H7.38462ZM32 20.7807C33.9704 20.7791 35.9217 21.1459 37.7424 21.8599C39.5631 22.574 41.2174 23.6213 42.6106 24.942C44.0039 26.2627 45.1088 27.8308 45.8621 29.5567C46.6153 31.2825 47.0022 33.1323 47.0006 35C47.0022 36.8677 46.6153 38.7175 45.8621 40.4433C45.1088 42.1692 44.0039 43.7373 42.6106 45.058C41.2174 46.3787 39.5631 47.426 37.7424 48.1401C35.9217 48.8541 33.9704 49.2209 32 49.2193C30.0296 49.2209 28.0783 48.8541 26.2576 48.1401C24.4369 47.426 22.7826 46.3787 21.3894 45.058C19.9961 43.7373 18.8912 42.1692 18.1379 40.4433C17.3847 38.7175 16.9978 36.8677 16.9994 35C16.9978 33.1323 17.3847 31.2825 18.1379 29.5567C18.8912 27.8308 19.9961 26.2627 21.3894 24.942C22.7826 23.6213 24.4369 22.574 26.2576 21.8599C28.0783 21.1459 30.0296 20.7791 32 20.7807ZM29.5385 28V32.6667H24.6154V37.3333H29.5385V42H34.4615V37.3333H39.3846V32.6667H34.4615V28H29.5385Z" fill="#0071BC"/>
<path d="M89.26 28.4C89.26 25.928 89.812 23.72 90.916 21.776C92.044 19.808 93.568 18.284 95.488 17.204C97.432 16.1 99.604 15.548 102.004 15.548C104.812 15.548 107.272 16.268 109.384 17.708C111.496 19.148 112.972 21.14 113.812 23.684H108.016C107.44 22.484 106.624 21.584 105.568 20.984C104.536 20.384 103.336 20.084 101.968 20.084C100.504 20.084 99.196 20.432 98.044 21.128C96.916 21.8 96.028 22.76 95.38 24.008C94.756 25.256 94.444 26.72 94.444 28.4C94.444 30.056 94.756 31.52 95.38 32.792C96.028 34.04 96.916 35.012 98.044 35.708C99.196 36.38 100.504 36.716 101.968 36.716C103.336 36.716 104.536 36.416 105.568 35.816C106.624 35.192 107.44 34.28 108.016 33.08H113.812C112.972 35.648 111.496 37.652 109.384 39.092C107.296 40.508 104.836 41.216 102.004 41.216C99.604 41.216 97.432 40.676 95.488 39.596C93.568 38.492 92.044 36.968 90.916 35.024C89.812 33.08 89.26 30.872 89.26 28.4ZM123.157 37.004H131.437V41H118.117V15.872H123.157V37.004ZM139.68 15.872V41H134.64V15.872H139.68ZM166.152 41H161.112L149.7 23.756V41H144.66V15.836H149.7L161.112 33.116V15.836H166.152V41ZM176.172 15.872V41H171.132V15.872H176.172ZM179.928 28.4C179.928 25.928 180.48 23.72 181.584 21.776C182.712 19.808 184.236 18.284 186.156 17.204C188.1 16.1 190.272 15.548 192.672 15.548C195.48 15.548 197.94 16.268 200.052 17.708C202.164 19.148 203.64 21.14 204.48 23.684H198.684C198.108 22.484 197.292 21.584 196.236 20.984C195.204 20.384 194.004 20.084 192.636 20.084C191.172 20.084 189.864 20.432 188.712 21.128C187.584 21.8 186.696 22.76 186.048 24.008C185.424 25.256 185.112 26.72 185.112 28.4C185.112 30.056 185.424 31.52 186.048 32.792C186.696 34.04 187.584 35.012 188.712 35.708C189.864 36.38 191.172 36.716 192.636 36.716C194.004 36.716 195.204 36.416 196.236 35.816C197.292 35.192 198.108 34.28 198.684 33.08H204.48C203.64 35.648 202.164 37.652 200.052 39.092C197.964 40.508 195.504 41.216 192.672 41.216C190.272 41.216 188.1 40.676 186.156 39.596C184.236 38.492 182.712 36.968 181.584 35.024C180.48 33.08 179.928 30.872 179.928 28.4Z" fill="#0071BC"/>
</svg>
