<svg width="79" height="117" viewBox="0 0 79 117" fill="none" xmlns="http://www.w3.org/2000/svg">
<path d="M31.9231 0.435791C27.4942 0.435791 23.8462 3.67541 23.8462 7.60838V12.3901H29.2308V7.60838C29.2308 6.26232 30.4073 5.21751 31.9231 5.21751H48.0769C49.5927 5.21751 50.7692 6.26232 50.7692 7.60838V12.3901H56.1538V7.60838C56.1538 3.67541 52.5058 0.435791 48.0769 0.435791H31.9231ZM13.0769 14.781C10.9348 14.781 8.88039 15.5366 7.36568 16.8818C5.85096 18.2269 5 20.0513 5 21.9535L5 50.6439C5 52.5462 5.85096 54.3705 7.36568 55.7157C8.88039 57.0608 10.9348 57.8165 13.0769 57.8165H66.9231C71.3815 57.8165 75 54.6032 75 50.6439V21.9535C75 20.0513 74.149 18.2269 72.6343 16.8818C71.1196 15.5366 69.0652 14.781 66.9231 14.781H13.0769ZM40 21.7288C42.1551 21.7272 44.2894 22.103 46.2808 22.8347C48.2721 23.5663 50.0815 24.6395 51.6054 25.9927C53.1293 27.346 54.3377 28.9528 55.1616 30.7212C55.9855 32.4896 56.4087 34.3849 56.4069 36.2987C56.4087 38.2125 55.9855 40.1078 55.1616 41.8762C54.3377 43.6447 53.1293 45.2515 51.6054 46.6047C50.0815 47.958 48.2721 49.0311 46.2808 49.7628C44.2894 50.4944 42.1551 50.8702 40 50.8686C37.8449 50.8702 35.7106 50.4944 33.7192 49.7628C31.7279 49.0311 29.9185 47.958 28.3946 46.6047C26.8707 45.2515 25.6623 43.6447 24.8384 41.8762C24.0145 40.1078 23.5913 38.2125 23.5931 36.2987C23.5913 34.3849 24.0145 32.4896 24.8384 30.7212C25.6623 28.9528 26.8707 27.346 28.3946 25.9927C29.9185 24.6395 31.7279 23.5663 33.7192 22.8347C35.7106 22.103 37.8449 21.7272 40 21.7288ZM37.3077 29.1261V33.9079H31.9231V38.6896H37.3077V43.4713H42.6923V38.6896H48.0769V33.9079H42.6923V29.1261H37.3077Z" fill="#0071BC"/>
<path d="M0.84 98.6C0.84 96.952 1.208 95.48 1.944 94.184C2.696 92.872 3.712 91.856 4.992 91.136C6.288 90.4 7.736 90.032 9.336 90.032C11.208 90.032 12.848 90.512 14.256 91.472C15.664 92.432 16.648 93.76 17.208 95.456H13.344C12.96 94.656 12.416 94.056 11.712 93.656C11.024 93.256 10.224 93.056 9.312 93.056C8.336 93.056 7.464 93.288 6.696 93.752C5.944 94.2 5.352 94.84 4.92 95.672C4.504 96.504 4.296 97.48 4.296 98.6C4.296 99.704 4.504 100.68 4.92 101.528C5.352 102.36 5.944 103.008 6.696 103.472C7.464 103.92 8.336 104.144 9.312 104.144C10.224 104.144 11.024 103.944 11.712 103.544C12.416 103.128 12.96 102.52 13.344 101.72H17.208C16.648 103.432 15.664 104.768 14.256 105.728C12.864 106.672 11.224 107.144 9.336 107.144C7.736 107.144 6.288 106.784 4.992 106.064C3.712 105.328 2.696 104.312 1.944 103.016C1.208 101.72 0.84 100.248 0.84 98.6ZM23.4379 104.336H28.9579V107H20.0779V90.248H23.4379V104.336ZM34.4535 90.248V107H31.0935V90.248H34.4535ZM52.1012 107H48.7412L41.1332 95.504V107H37.7732V90.224H41.1332L48.7412 101.744V90.224H52.1012V107ZM58.7816 90.248V107H55.4216V90.248H58.7816ZM61.2853 98.6C61.2853 96.952 61.6533 95.48 62.3893 94.184C63.1413 92.872 64.1573 91.856 65.4373 91.136C66.7333 90.4 68.1813 90.032 69.7813 90.032C71.6533 90.032 73.2933 90.512 74.7013 91.472C76.1093 92.432 77.0933 93.76 77.6533 95.456H73.7893C73.4053 94.656 72.8613 94.056 72.1573 93.656C71.4693 93.256 70.6693 93.056 69.7573 93.056C68.7813 93.056 67.9093 93.288 67.1413 93.752C66.3893 94.2 65.7973 94.84 65.3653 95.672C64.9493 96.504 64.7413 97.48 64.7413 98.6C64.7413 99.704 64.9493 100.68 65.3653 101.528C65.7973 102.36 66.3893 103.008 67.1413 103.472C67.9093 103.92 68.7813 104.144 69.7573 104.144C70.6693 104.144 71.4693 103.944 72.1573 103.544C72.8613 103.128 73.4053 102.52 73.7893 101.72H77.6533C77.0933 103.432 76.1093 104.768 74.7013 105.728C73.3093 106.672 71.6693 107.144 69.7813 107.144C68.1813 107.144 66.7333 106.784 65.4373 106.064C64.1573 105.328 63.1413 104.312 62.3893 103.016C61.6533 101.72 61.2853 100.248 61.2853 98.6Z" fill="#0071BC"/>
</svg>
