<svg width="56" height="56" viewBox="0 0 56 56" fill="none" xmlns="http://www.w3.org/2000/svg">
<rect width="56" height="56" rx="4" fill="#CCE3F2"/>
<path d="M31.76 43H28.64C28.0885 42.9995 27.5598 42.7813 27.1698 42.3934C26.7799 42.0055 26.5606 41.4796 26.56 40.931V35.7586H28.64V40.931H31.76V35.7586H33.84V31.6207C33.8397 31.3464 33.7301 31.0834 33.5351 30.8895C33.3401 30.6956 33.0757 30.5865 32.8 30.5862H23.7312L21.6512 24.3793H15.12C14.8443 24.3796 14.5799 24.4887 14.3849 24.6826C14.1899 24.8766 14.0803 25.1395 14.08 25.4138V31.6207H16.16V40.931H20.32V33.6897H22.4V40.931C22.3995 41.4796 22.1801 42.0055 21.7902 42.3934C21.4002 42.7813 20.8715 42.9995 20.32 43H16.16C15.6085 42.9995 15.0798 42.7813 14.6898 42.3934C14.2999 42.0055 14.0806 41.4796 14.08 40.931V33.6897C13.5285 33.6891 12.9998 33.471 12.6098 33.0831C12.2199 32.6952 12.0006 32.1692 12 31.6207V25.4138C12.0008 24.591 12.3298 23.8021 12.9147 23.2202C13.4997 22.6384 14.2928 22.3112 15.12 22.3103H21.6512C22.0877 22.3101 22.5132 22.4465 22.8673 22.7004C23.2215 22.9542 23.4862 23.3125 23.6241 23.7245L25.2288 28.5172H32.8C33.6272 28.5181 34.4203 28.8453 35.0053 29.4271C35.5902 30.009 35.9192 30.7979 35.92 31.6207V35.7586C35.9195 36.3072 35.7001 36.8331 35.3102 37.221C34.9202 37.6089 34.3915 37.827 33.84 37.8276V40.931C33.8395 41.4796 33.6201 42.0055 33.2302 42.3934C32.8402 42.7813 32.3115 42.9995 31.76 43ZM40.08 43H38V31.6207H41.12V25.4138C41.1197 25.1395 41.0101 24.8766 40.8151 24.6826C40.6201 24.4887 40.3557 24.3796 40.08 24.3793H35.92V22.3103H40.08C40.9072 22.3112 41.7003 22.6384 42.2853 23.2202C42.8702 23.8021 43.1992 24.591 43.2 25.4138V31.6207C43.1995 32.1692 42.9801 32.6952 42.5902 33.0831C42.2002 33.471 41.6715 33.6891 41.12 33.6897H40.08V43ZM18.24 21.2759C17.4172 21.2759 16.6129 21.0332 15.9288 20.5785C15.2447 20.1238 14.7115 19.4776 14.3967 18.7215C14.0818 17.9653 13.9994 17.1333 14.1599 16.3307C14.3204 15.528 14.7166 14.7907 15.2984 14.212C15.8802 13.6333 16.6215 13.2392 17.4284 13.0795C18.2354 12.9198 19.0718 13.0018 19.832 13.315C20.5921 13.6282 21.2418 14.1585 21.6989 14.839C22.156 15.5195 22.4 16.3195 22.4 17.1379C22.3986 18.235 21.9599 19.2867 21.18 20.0624C20.4002 20.8381 19.3429 21.2745 18.24 21.2759ZM18.24 15.069C17.8286 15.069 17.4265 15.1903 17.0844 15.4177C16.7424 15.645 16.4758 15.9681 16.3183 16.3462C16.1609 16.7242 16.1197 17.1402 16.2 17.5416C16.2802 17.9429 16.4783 18.3116 16.7692 18.6009C17.0601 18.8903 17.4307 19.0873 17.8342 19.1671C18.2377 19.247 18.6559 19.206 19.036 19.0494C19.4161 18.8928 19.7409 18.6276 19.9695 18.2874C20.198 17.9471 20.32 17.5471 20.32 17.1379C20.3195 16.5894 20.1001 16.0634 19.7102 15.6756C19.3202 15.2877 18.7915 15.0695 18.24 15.069ZM36.96 21.2759C36.1372 21.2759 35.3329 21.0332 34.6488 20.5785C33.9647 20.1238 33.4315 19.4776 33.1167 18.7215C32.8018 17.9653 32.7194 17.1333 32.8799 16.3307C33.0404 15.528 33.4367 14.7907 34.0184 14.212C34.6002 13.6333 35.3415 13.2392 36.1484 13.0795C36.9554 12.9198 37.7918 13.0018 38.552 13.315C39.3121 13.6282 39.9618 14.1585 40.4189 14.839C40.876 15.5195 41.12 16.3195 41.12 17.1379C41.1186 18.235 40.6799 19.2867 39.9 20.0624C39.1202 20.8381 38.0629 21.2745 36.96 21.2759ZM36.96 15.069C36.5486 15.069 36.1465 15.1903 35.8044 15.4177C35.4624 15.645 35.1958 15.9681 35.0383 16.3462C34.8809 16.7242 34.8397 17.1402 34.92 17.5416C35.0002 17.9429 35.1983 18.3116 35.4892 18.6009C35.7801 18.8903 36.1507 19.0873 36.5542 19.1671C36.9577 19.247 37.3759 19.206 37.756 19.0494C38.1361 18.8928 38.4609 18.6276 38.6895 18.2874C38.918 17.9471 39.04 17.5471 39.04 17.1379C39.0395 16.5894 38.8201 16.0634 38.4302 15.6756C38.0402 15.2877 37.5115 15.0695 36.96 15.069Z" fill="#0071BC"/>
<path d="M30.2001 27.4828C29.4801 27.4828 28.7764 27.2704 28.1778 26.8726C27.5792 26.4747 27.1126 25.9093 26.8371 25.2477C26.5616 24.5861 26.4896 23.8581 26.63 23.1557C26.7705 22.4534 27.1171 21.8082 27.6262 21.3019C28.1353 20.7955 28.7838 20.4507 29.4899 20.311C30.196 20.1713 30.9279 20.243 31.593 20.517C32.2582 20.791 32.8266 21.2551 33.2266 21.8505C33.6266 22.446 33.8401 23.146 33.8401 23.8621C33.839 24.822 33.4551 25.7423 32.7727 26.4211C32.0903 27.0999 31.1651 27.4817 30.2001 27.4828ZM30.2001 22.3104C29.8915 22.3104 29.5899 22.4014 29.3334 22.5719C29.0768 22.7424 28.8769 22.9847 28.7588 23.2683C28.6407 23.5518 28.6098 23.8638 28.67 24.1648C28.7302 24.4658 28.8788 24.7423 29.097 24.9593C29.3151 25.1763 29.5931 25.3241 29.8957 25.384C30.1983 25.4439 30.512 25.4131 30.797 25.2957C31.0821 25.1782 31.3257 24.9794 31.4972 24.7242C31.6686 24.469 31.7601 24.169 31.7601 23.8621C31.7595 23.4507 31.595 23.0563 31.3025 22.7655C31.0101 22.4746 30.6136 22.3109 30.2001 22.3104Z" fill="#0071BC"/>
</svg>
