<svg width="40" height="40" viewBox="0 0 40 40" fill="none" xmlns="http://www.w3.org/2000/svg">
<path d="M38.4 0H1.6C0.715 0 0 0.709958 0 1.58872V38.1292C0 39.008 0.715 39.7179 1.6 39.7179H38.4C39.285 39.7179 40 39.008 40 38.1292V1.58872C40 0.709958 39.285 0 38.4 0ZM30.765 14.3829C30.78 14.6162 30.78 14.8595 30.78 15.0978C30.78 22.386 25.19 30.7814 14.975 30.7814C11.825 30.7814 8.905 29.8728 6.445 28.3089C6.895 28.3586 7.325 28.3785 7.785 28.3785C10.385 28.3785 12.775 27.5047 14.68 26.0252C12.24 25.9755 10.19 24.3868 9.49 22.2023C10.345 22.3264 11.115 22.3264 11.995 22.103C10.7386 21.8496 9.60938 21.172 8.79908 20.1856C7.98879 19.1991 7.54743 17.9644 7.55 16.6915V16.6219C8.285 17.034 9.15 17.2872 10.055 17.322C9.29421 16.8185 8.67029 16.1364 8.23856 15.3362C7.80682 14.536 7.58062 13.6424 7.58 12.7346C7.58 11.7069 7.85 10.7685 8.335 9.9543C9.72951 11.6589 11.4697 13.053 13.4423 14.0461C15.415 15.0391 17.576 15.6089 19.785 15.7184C19 11.97 21.82 8.93653 25.21 8.93653C26.81 8.93653 28.25 9.60181 29.265 10.6742C30.52 10.4408 31.72 9.97416 32.79 9.3486C32.375 10.6245 31.505 11.7019 30.35 12.3821C31.47 12.2629 32.55 11.9551 33.55 11.5232C32.795 12.6253 31.85 13.6034 30.765 14.3829Z" fill="#0071BC"/>
</svg>
