<svg width="40" height="40" viewBox="0 0 40 40" fill="none" xmlns="http://www.w3.org/2000/svg">
<rect width="40" height="40" rx="4" fill="#0071BC"/>
<path d="M9.46574 12.4235H9.42392C8.98114 12.4511 8.53742 12.3873 8.12054 12.2359C7.70366 12.0845 7.3226 11.8489 7.00121 11.5439C6.67982 11.2388 6.42503 10.8708 6.2528 10.463C6.08056 10.0552 5.99459 9.61629 6.00026 9.17378C6.00594 8.73128 6.10313 8.29471 6.28577 7.89141C6.4684 7.48811 6.73254 7.12676 7.06164 6.83C7.39075 6.53324 7.77773 6.30745 8.19835 6.16677C8.61898 6.02609 9.06419 5.97355 9.50611 6.01244C9.9489 5.98158 10.3933 6.0423 10.8115 6.19077C11.2296 6.33924 11.6125 6.57228 11.9362 6.87527C12.2598 7.17826 12.5173 7.54467 12.6923 7.95154C12.8674 8.35841 12.9563 8.79696 12.9535 9.23971C12.9507 9.68247 12.8563 10.1199 12.6761 10.5245C12.4959 10.9292 12.2339 11.2923 11.9065 11.5912C11.579 11.8901 11.1932 12.1184 10.7732 12.2616C10.3532 12.4048 9.9081 12.4599 9.46574 12.4235V12.4235ZM6.60192 16.7388H12.3699V34H6.60192V16.7388ZM27.511 16.7388C26.5391 16.7414 25.5803 16.9631 24.7064 17.3873C23.8324 17.8115 23.0658 18.4272 22.464 19.1885V16.7388H16.6959V34H22.464V26.0886C22.464 25.3256 22.7678 24.5939 23.3087 24.0544C23.8495 23.5149 24.5831 23.2118 25.348 23.2118C26.1129 23.2118 26.8464 23.5149 27.3873 24.0544C27.9281 24.5939 28.232 25.3256 28.232 26.0886V34H34V23.2118C34 21.495 33.3163 19.8486 32.0994 18.6347C30.8825 17.4208 29.232 16.7388 27.511 16.7388Z" fill="white"/>
</svg>
