<svg width="40" height="40" viewBox="0 0 40 40" fill="none" xmlns="http://www.w3.org/2000/svg">
<path fill-rule="evenodd" clip-rule="evenodd" d="M11.7545 0.119154C13.8873 0.0216643 14.5673 0 20 0C25.4327 0 26.1127 0.0234696 28.2436 0.119154C30.3745 0.214838 31.8291 0.55244 33.1018 1.04169C34.4345 1.54178 35.6436 2.3235 36.6436 3.3345C37.6618 4.32564 38.4473 5.5244 38.9491 6.84953C39.4436 8.11329 39.7818 9.55758 39.88 11.6698C39.9782 13.7911 40 14.4663 40 19.859C40 25.2534 39.9764 25.9286 39.88 28.0463C39.7836 30.1585 39.4436 31.6028 38.9491 32.8666C38.4473 34.1919 37.6605 35.3926 36.6436 36.3852C35.6436 37.3962 34.4345 38.1761 33.1018 38.6744C31.8291 39.1655 30.3745 39.5013 28.2473 39.5988C26.1127 39.6963 25.4327 39.7179 20 39.7179C14.5673 39.7179 13.8873 39.6944 11.7545 39.5988C9.62727 39.5031 8.17273 39.1655 6.9 38.6744C5.56531 38.1761 4.35604 37.3949 3.35636 36.3852C2.33887 35.3935 1.55148 34.1933 1.04909 32.8684C0.556364 31.6046 0.218182 30.1603 0.12 28.0481C0.0218182 25.9268 0 25.2516 0 19.859C0 14.4645 0.0236363 13.7893 0.12 11.6735C0.216364 9.55757 0.556364 8.11329 1.04909 6.84953C1.55222 5.52455 2.34022 4.3244 3.35818 3.33269C4.35644 2.3226 5.5645 1.54077 6.89818 1.04169C8.17091 0.55244 9.62545 0.216643 11.7527 0.119154H11.7545ZM28.0818 3.69377C25.9727 3.59808 25.34 3.57822 20 3.57822C14.66 3.57822 14.0273 3.59808 11.9182 3.69377C9.96727 3.78223 8.90909 4.10539 8.20364 4.378C7.27091 4.73907 6.60364 5.16694 5.90364 5.862C5.24008 6.503 4.72942 7.28333 4.40909 8.14578C4.13455 8.84626 3.80909 9.89698 3.72 11.8341C3.62364 13.9283 3.60364 14.5566 3.60364 19.859C3.60364 25.1613 3.62364 25.7896 3.72 27.8838C3.80909 29.8209 4.13455 30.8717 4.40909 31.5721C4.72909 32.4333 5.24 33.215 5.90364 33.8559C6.54909 34.5149 7.33636 35.0222 8.20364 35.3399C8.90909 35.6125 9.96727 35.9357 11.9182 36.0241C14.0273 36.1198 14.6582 36.1397 20 36.1397C25.3418 36.1397 25.9727 36.1198 28.0818 36.0241C30.0327 35.9357 31.0909 35.6125 31.7964 35.3399C32.7291 34.9788 33.3964 34.551 34.0964 33.8559C34.76 33.215 35.2709 32.4333 35.5909 31.5721C35.8655 30.8717 36.1909 29.8209 36.28 27.8838C36.3764 25.7896 36.3964 25.1613 36.3964 19.859C36.3964 14.5566 36.3764 13.9283 36.28 11.8341C36.1909 9.89698 35.8655 8.84626 35.5909 8.14578C35.2273 7.21963 34.7964 6.55707 34.0964 5.862C33.4508 5.20318 32.6649 4.69612 31.7964 4.378C31.0909 4.10539 30.0327 3.78223 28.0818 3.69377ZM17.4455 25.9809C18.8721 26.5706 20.4607 26.6502 21.9399 26.2061C23.4191 25.762 24.6971 24.8217 25.5557 23.5459C26.4142 22.2701 26.8001 20.7379 26.6474 19.211C26.4946 17.6841 25.8127 16.2572 24.7182 15.174C24.0204 14.4817 23.1768 13.9515 22.2479 13.6217C21.319 13.2919 20.3281 13.1707 19.3464 13.2669C18.3647 13.363 17.4166 13.6741 16.5706 14.1777C15.7245 14.6813 15.0014 15.365 14.4533 16.1794C13.9052 16.9938 13.5458 17.9187 13.4009 18.8876C13.2561 19.8565 13.3294 20.8452 13.6155 21.7826C13.9017 22.72 14.3936 23.5827 15.0559 24.3087C15.7181 25.0346 16.5342 25.6057 17.4455 25.9809ZM12.7309 12.6411C13.6855 11.6933 14.8188 10.9414 16.066 10.4284C17.3132 9.91543 18.65 9.65141 20 9.65141C21.35 9.65141 22.6868 9.91543 23.934 10.4284C25.1812 10.9414 26.3145 11.6933 27.2691 12.6411C28.2237 13.589 28.9809 14.7143 29.4975 15.9527C30.0141 17.1911 30.28 18.5185 30.28 19.859C30.28 21.1994 30.0141 22.5268 29.4975 23.7652C28.9809 25.0037 28.2237 26.1289 27.2691 27.0768C25.3412 28.9911 22.7264 30.0665 20 30.0665C17.2736 30.0665 14.6588 28.9911 12.7309 27.0768C10.803 25.1625 9.71995 22.5662 9.71995 19.859C9.71995 17.1517 10.803 14.5554 12.7309 12.6411ZM32.56 11.1716C32.7966 10.95 32.9859 10.6835 33.1169 10.388C33.2479 10.0924 33.3178 9.7738 33.3226 9.45093C33.3273 9.12806 33.2668 8.80753 33.1445 8.50832C33.0223 8.2091 32.8408 7.93728 32.6108 7.70896C32.3809 7.48063 32.1071 7.30044 31.8058 7.17904C31.5045 7.05765 31.1817 6.99753 30.8565 7.00224C30.5313 7.00694 30.2104 7.07639 29.9128 7.20645C29.6151 7.33651 29.3468 7.52455 29.1236 7.75944C28.6897 8.21624 28.4521 8.82301 28.4613 9.45093C28.4705 10.0789 28.7258 10.6785 29.173 11.1225C29.6202 11.5666 30.2241 11.8201 30.8565 11.8293C31.4889 11.8384 32.0999 11.6025 32.56 11.1716Z" fill="#0071BC"/>
</svg>
