<svg width="40" height="40" viewBox="0 0 40 40" fill="none" xmlns="http://www.w3.org/2000/svg">
<path d="M35.7143 0H4.28571C3.14907 0 2.05898 0.448345 1.25526 1.2464C0.451529 2.04446 0 3.12686 0 4.25549L0 35.4624C0 36.591 0.451529 37.6735 1.25526 38.4715C2.05898 39.2696 3.14907 39.7179 4.28571 39.7179H16.5402V26.2147H10.9152V19.859H16.5402V15.0148C16.5402 9.50482 19.8438 6.46125 24.9036 6.46125C27.3268 6.46125 29.8607 6.89035 29.8607 6.89035V12.2984H27.0688C24.3179 12.2984 23.4598 13.9935 23.4598 15.732V19.859H29.6009L28.6188 26.2147H23.4598V39.7179H35.7143C36.8509 39.7179 37.941 39.2696 38.7447 38.4715C39.5485 37.6735 40 36.591 40 35.4624V4.25549C40 3.12686 39.5485 2.04446 38.7447 1.2464C37.941 0.448345 36.8509 0 35.7143 0Z" fill="#0071BC"/>
</svg>
