<svg width="44" height="44" viewBox="0 0 44 44" fill="none" xmlns="http://www.w3.org/2000/svg">
<g filter="url(#filter0_dd_2396_37640)">
<circle cx="22" cy="21" r="18" fill="white"/>
<path d="M29.9995 24.9182V27.3146C30.0004 27.5371 29.9545 27.7573 29.8648 27.9611C29.775 28.165 29.6434 28.3479 29.4783 28.4983C29.3132 28.6487 29.1183 28.7632 28.906 28.8345C28.6938 28.9058 28.4689 28.9322 28.2457 28.9122C25.7702 28.6451 23.3923 27.8052 21.3031 26.4599C19.3594 25.2335 17.7114 23.5971 16.4763 21.6671C15.1167 19.5832 14.2706 17.2106 14.0065 14.7415C13.9864 14.5206 14.0129 14.2979 14.0842 14.0877C14.1555 13.8776 14.2701 13.6844 14.4206 13.5206C14.5712 13.3568 14.7545 13.2259 14.9589 13.1363C15.1632 13.0467 15.3841 13.0003 15.6074 13.0001H18.0209C18.4113 12.9963 18.7898 13.1335 19.0858 13.3863C19.3818 13.6391 19.5752 13.9902 19.6298 14.374C19.7317 15.1409 19.9206 15.8939 20.1929 16.6187C20.3012 16.9046 20.3246 17.2153 20.2604 17.514C20.1963 17.8127 20.0472 18.0869 19.8309 18.3041L18.8092 19.3186C19.9545 21.3184 21.6221 22.9743 23.6361 24.1114L24.6578 23.0969C24.8765 22.8822 25.1527 22.7342 25.4535 22.6705C25.7544 22.6067 26.0673 22.63 26.3552 22.7375C27.0851 23.0079 27.8435 23.1955 28.6158 23.2966C29.0066 23.3514 29.3635 23.5468 29.6186 23.8458C29.8737 24.1448 30.0093 24.5265 29.9995 24.9182Z" stroke="#0071BC" stroke-width="2" stroke-linecap="round" stroke-linejoin="round"/>
</g>
<defs>
<filter id="filter0_dd_2396_37640" x="0" y="0" width="44" height="44" filterUnits="userSpaceOnUse" color-interpolation-filters="sRGB">
<feFlood flood-opacity="0" result="BackgroundImageFix"/>
<feColorMatrix in="SourceAlpha" type="matrix" values="0 0 0 0 0 0 0 0 0 0 0 0 0 0 0 0 0 0 127 0" result="hardAlpha"/>
<feMorphology radius="1" operator="dilate" in="SourceAlpha" result="effect1_dropShadow_2396_37640"/>
<feOffset dy="1"/>
<feGaussianBlur stdDeviation="1.5"/>
<feColorMatrix type="matrix" values="0 0 0 0 0 0 0 0 0 0 0 0 0 0 0 0 0 0 0.15 0"/>
<feBlend mode="normal" in2="BackgroundImageFix" result="effect1_dropShadow_2396_37640"/>
<feColorMatrix in="SourceAlpha" type="matrix" values="0 0 0 0 0 0 0 0 0 0 0 0 0 0 0 0 0 0 127 0" result="hardAlpha"/>
<feOffset dy="1"/>
<feGaussianBlur stdDeviation="1"/>
<feColorMatrix type="matrix" values="0 0 0 0 0 0 0 0 0 0 0 0 0 0 0 0 0 0 0.3 0"/>
<feBlend mode="normal" in2="effect1_dropShadow_2396_37640" result="effect2_dropShadow_2396_37640"/>
<feBlend mode="normal" in="SourceGraphic" in2="effect2_dropShadow_2396_37640" result="shape"/>
</filter>
</defs>
</svg>
