<svg width="56" height="56" viewBox="0 0 56 56" fill="none" xmlns="http://www.w3.org/2000/svg">
<rect width="56" height="56" rx="4" fill="#CCE3F2"/>
<path d="M28.8818 14.0843C28.8818 13.7967 28.7679 13.5209 28.565 13.3176C28.3621 13.1142 28.0869 13 27.8 13C27.5131 13 27.2379 13.1142 27.035 13.3176C26.8321 13.5209 26.7182 13.7967 26.7182 14.0843V25.4539L25.6363 26.2281V21.067C25.6363 19.0069 23.9703 17.3371 21.9148 17.3371C20.781 17.3371 19.7013 17.9226 18.7926 18.6209C17.86 19.3408 16.96 20.2971 16.1616 21.286C14.5691 23.255 13.2471 25.506 12.7429 26.664C12.3621 27.5422 11.8926 29.1795 11.5399 31.0249C11.1829 32.8834 10.9276 35.0519 11.0185 37.0079C11.105 38.888 11.5226 40.8896 12.8317 42.0606C14.2813 43.3617 16.3411 43.2663 18.7623 42.0519L22.6461 40.1068C23.5446 39.6565 24.3002 38.9644 24.8284 38.108C25.3565 37.2516 25.6363 36.2647 25.6363 35.2579V33.6011C25.6363 33.3136 25.5223 33.0378 25.3195 32.8344C25.1166 32.6311 24.8414 32.5169 24.5545 32.5169C24.2676 32.5169 23.9924 32.6311 23.7895 32.8344C23.5866 33.0378 23.4726 33.3136 23.4726 33.6011V35.2579C23.4726 35.8623 23.3046 36.4548 22.9874 36.9688C22.6702 37.4828 22.2163 37.8981 21.6768 38.1681L17.7951 40.1133C15.6791 41.1737 14.7335 40.8571 14.2727 40.4429C13.6668 39.9007 13.2622 38.7059 13.18 36.9082C13.0999 35.1842 13.3271 33.2 13.6647 31.4326C14.0044 29.6544 14.4371 28.1993 14.727 27.5292C15.1381 26.5794 16.3498 24.4933 17.8427 22.65C18.5827 21.7349 19.3638 20.9173 20.1124 20.3405C20.887 19.742 21.495 19.5056 21.9148 19.5056C22.328 19.5056 22.7242 19.6701 23.0164 19.9629C23.3085 20.2557 23.4726 20.6529 23.4726 21.067V27.7764L19.5996 30.5522C19.3824 30.725 19.2398 30.9748 19.201 31.25C19.1623 31.5252 19.2305 31.8048 19.3916 32.0311C19.5526 32.2574 19.7942 32.413 20.0665 32.4659C20.3387 32.5187 20.6209 32.4648 20.8546 32.3152L27.8 27.3427L34.7454 32.3152C34.8607 32.4032 34.9925 32.4671 35.133 32.5031C35.2734 32.539 35.4196 32.5463 35.563 32.5246C35.7063 32.5028 35.8438 32.4524 35.9673 32.3763C36.0908 32.3002 36.1977 32.2 36.2819 32.0817C36.366 31.9634 36.4255 31.8294 36.4569 31.6875C36.4883 31.5457 36.491 31.399 36.4647 31.2561C36.4385 31.1132 36.3838 30.9771 36.3041 30.8558C36.2243 30.7345 36.121 30.6305 36.0003 30.55L32.1274 27.7764V21.067C32.1274 20.6529 32.2915 20.2557 32.5836 19.9629C32.8758 19.6701 33.272 19.5056 33.6852 19.5056C34.105 19.5056 34.713 19.7442 35.4876 20.3405C36.2362 20.9173 37.0151 21.7349 37.7594 22.6522C39.248 24.4954 40.4597 26.5794 40.873 27.5292C41.1629 28.1993 41.5956 29.6544 41.9353 31.4326C42.2729 33.1978 42.4979 35.1842 42.42 36.9082C42.3378 38.7059 41.9353 39.9007 41.3273 40.4429C40.8665 40.8549 39.9209 41.1737 37.8049 40.1133L33.9211 38.1681C33.3819 37.8978 32.9285 37.4824 32.6117 36.9684C32.2949 36.4544 32.1272 35.8621 32.1274 35.2579V33.6011C32.1274 33.3136 32.0134 33.0378 31.8105 32.8344C31.6076 32.6311 31.3324 32.5169 31.0455 32.5169C30.7586 32.5169 30.4834 32.6311 30.2805 32.8344C30.0777 33.0378 29.9637 33.3136 29.9637 33.6011V35.2579C29.9637 36.2647 30.2435 37.2516 30.7716 38.108C31.2997 38.9644 32.0554 39.6565 32.9539 40.1068L36.8377 42.0519C39.261 43.2663 41.3165 43.3596 42.7683 42.0606C44.0774 40.8896 44.495 38.888 44.5815 37.0079C44.6724 35.0519 44.4171 32.8834 44.0622 31.0249C43.7074 29.1773 43.24 27.5422 42.8549 26.6618C42.3529 25.506 41.0309 23.255 39.4384 21.286C38.6379 20.2971 37.7399 19.3408 36.8074 18.6209C35.8987 17.9226 34.819 17.3371 33.6852 17.3371C31.6297 17.3371 29.9637 19.0069 29.9637 21.067V26.2281L28.8818 25.4539V14.0843Z" fill="#0071BC"/>
</svg>
