<svg width="623" height="86" viewBox="0 0 623 86" fill="none" xmlns="http://www.w3.org/2000/svg">
<path d="M25.436 57.364C22.0387 57.364 18.9187 56.5667 16.076 54.972C13.2333 53.3773 10.98 51.176 9.316 48.368C7.652 45.5253 6.82 42.3187 6.82 38.748C6.82 35.212 7.652 32.04 9.316 29.232C10.98 26.3893 13.2333 24.1707 16.076 22.576C18.9187 20.9813 22.0387 20.184 25.436 20.184C28.868 20.184 31.988 20.9813 34.796 22.576C37.6387 24.1707 39.8747 26.3893 41.504 29.232C43.168 32.04 44 35.212 44 38.748C44 42.3187 43.168 45.5253 41.504 48.368C39.8747 51.176 37.6387 53.3773 34.796 54.972C31.9533 56.5667 28.8333 57.364 25.436 57.364ZM25.436 50.864C27.62 50.864 29.544 50.3787 31.208 49.408C32.872 48.4027 34.172 46.9813 35.108 45.144C36.044 43.3067 36.512 41.1747 36.512 38.748C36.512 36.3213 36.044 34.2067 35.108 32.404C34.172 30.5667 32.872 29.1627 31.208 28.192C29.544 27.2213 27.62 26.736 25.436 26.736C23.252 26.736 21.3107 27.2213 19.612 28.192C17.948 29.1627 16.648 30.5667 15.712 32.404C14.776 34.2067 14.308 36.3213 14.308 38.748C14.308 41.1747 14.776 43.3067 15.712 45.144C16.648 46.9813 17.948 48.4027 19.612 49.408C21.3107 50.3787 23.252 50.864 25.436 50.864ZM56.5921 20.704V43.168C56.5921 45.6293 57.2335 47.5187 58.5161 48.836C59.7988 50.1187 61.6015 50.76 63.9241 50.76C66.2815 50.76 68.1015 50.1187 69.3841 48.836C70.6668 47.5187 71.3081 45.6293 71.3081 43.168V20.704H78.6401V43.116C78.6401 46.2013 77.9641 48.8187 76.6121 50.968C75.2948 53.0827 73.5095 54.6773 71.2561 55.752C69.0375 56.8267 66.5588 57.364 63.8201 57.364C61.1161 57.364 58.6548 56.8267 56.4361 55.752C54.2521 54.6773 52.5188 53.0827 51.2361 50.968C49.9535 48.8187 49.3121 46.2013 49.3121 43.116V20.704H56.5921ZM104.394 57L96.3859 42.856H92.9539V57H85.6739V20.704H99.2979C102.106 20.704 104.498 21.2067 106.474 22.212C108.45 23.1827 109.923 24.5173 110.894 26.216C111.899 27.88 112.402 29.752 112.402 31.832C112.402 34.224 111.709 36.3907 110.322 38.332C108.935 40.2387 106.873 41.556 104.134 42.284L112.818 57H104.394ZM92.9539 37.396H99.0379C101.014 37.396 102.487 36.928 103.458 35.992C104.429 35.0213 104.914 33.6867 104.914 31.988C104.914 30.324 104.429 29.0413 103.458 28.14C102.487 27.204 101.014 26.736 99.0379 26.736H92.9539V37.396ZM170.949 20.704V57H163.669V33.392L153.945 57H148.433L138.657 33.392V57H131.377V20.704H139.645L151.189 47.692L162.733 20.704H170.949ZM185.427 26.58V35.68H197.647V41.452H185.427V51.072H199.207V57H178.147V20.652H199.207V26.58H185.427ZM218.51 20.704C222.324 20.704 225.669 21.4493 228.546 22.94C231.458 24.4307 233.694 26.5627 235.254 29.336C236.849 32.0747 237.646 35.264 237.646 38.904C237.646 42.544 236.849 45.7333 235.254 48.472C233.694 51.176 231.458 53.2733 228.546 54.764C225.669 56.2547 222.324 57 218.51 57H205.822V20.704H218.51ZM218.25 50.812C222.064 50.812 225.01 49.772 227.09 47.692C229.17 45.612 230.21 42.6827 230.21 38.904C230.21 35.1253 229.17 32.1787 227.09 30.064C225.01 27.9147 222.064 26.84 218.25 26.84H213.102V50.812H218.25ZM250.376 20.704V57H243.096V20.704H250.376ZM255.8 38.8C255.8 35.2293 256.598 32.04 258.192 29.232C259.822 26.3893 262.023 24.188 264.796 22.628C267.604 21.0333 270.742 20.236 274.208 20.236C278.264 20.236 281.818 21.276 284.868 23.356C287.919 25.436 290.051 28.3133 291.264 31.988H282.892C282.06 30.2547 280.882 28.9547 279.356 28.088C277.866 27.2213 276.132 26.788 274.156 26.788C272.042 26.788 270.152 27.2907 268.488 28.296C266.859 29.2667 265.576 30.6533 264.64 32.456C263.739 34.2587 263.288 36.3733 263.288 38.8C263.288 41.192 263.739 43.3067 264.64 45.144C265.576 46.9467 266.859 48.3507 268.488 49.356C270.152 50.3267 272.042 50.812 274.156 50.812C276.132 50.812 277.866 50.3787 279.356 49.512C280.882 48.6107 282.06 47.2933 282.892 45.56H291.264C290.051 49.2693 287.919 52.164 284.868 54.244C281.852 56.2893 278.299 57.312 274.208 57.312C270.742 57.312 267.604 56.532 264.796 54.972C262.023 53.3773 259.822 51.176 258.192 48.368C256.598 45.56 255.8 42.3707 255.8 38.8ZM319.739 50.084H305.283L302.891 57H295.247L308.299 20.652H316.775L329.827 57H322.131L319.739 50.084ZM317.763 44.26L312.511 29.076L307.259 44.26H317.763ZM341.985 51.228H353.945V57H334.705V20.704H341.985V51.228ZM397.431 31.936C397.431 33.8773 396.963 35.6973 396.027 37.396C395.126 39.0947 393.687 40.464 391.711 41.504C389.77 42.544 387.308 43.064 384.327 43.064H378.243V57H370.963V20.704H384.327C387.135 20.704 389.527 21.1893 391.503 22.16C393.479 23.1307 394.952 24.4653 395.923 26.164C396.928 27.8627 397.431 29.7867 397.431 31.936ZM384.015 37.188C386.026 37.188 387.516 36.7373 388.487 35.836C389.458 34.9 389.943 33.6 389.943 31.936C389.943 28.4 387.967 26.632 384.015 26.632H378.243V37.188H384.015ZM409.88 26.58V35.68H422.1V41.452H409.88V51.072H423.66V57H402.6V20.652H423.66V26.58H409.88ZM448.996 57L440.988 42.856H437.556V57H430.276V20.704H443.9C446.708 20.704 449.1 21.2067 451.076 22.212C453.052 23.1827 454.525 24.5173 455.496 26.216C456.501 27.88 457.004 29.752 457.004 31.832C457.004 34.224 456.31 36.3907 454.924 38.332C453.537 40.2387 451.474 41.556 448.736 42.284L457.42 57H448.996ZM437.556 37.396H443.64C445.616 37.396 447.089 36.928 448.06 35.992C449.03 35.0213 449.516 33.6867 449.516 31.988C449.516 30.324 449.03 29.0413 448.06 28.14C447.089 27.204 445.616 26.736 443.64 26.736H437.556V37.396ZM476.12 57.364C473.589 57.364 471.301 56.9307 469.256 56.064C467.245 55.1973 465.651 53.9493 464.472 52.32C463.293 50.6907 462.687 48.7667 462.652 46.548H470.452C470.556 48.0387 471.076 49.2173 472.012 50.084C472.983 50.9507 474.3 51.384 475.964 51.384C477.663 51.384 478.997 50.9853 479.968 50.188C480.939 49.356 481.424 48.2813 481.424 46.964C481.424 45.8893 481.095 45.0053 480.436 44.312C479.777 43.6187 478.945 43.0813 477.94 42.7C476.969 42.284 475.617 41.8333 473.884 41.348C471.527 40.6547 469.603 39.9787 468.112 39.32C466.656 38.6267 465.391 37.604 464.316 36.252C463.276 34.8653 462.756 33.028 462.756 30.74C462.756 28.5907 463.293 26.7187 464.368 25.124C465.443 23.5293 466.951 22.316 468.892 21.484C470.833 20.6173 473.052 20.184 475.548 20.184C479.292 20.184 482.325 21.1027 484.648 22.94C487.005 24.7427 488.305 27.2733 488.548 30.532H480.54C480.471 29.284 479.933 28.2613 478.928 27.464C477.957 26.632 476.657 26.216 475.028 26.216C473.607 26.216 472.463 26.58 471.596 27.308C470.764 28.036 470.348 29.0933 470.348 30.48C470.348 31.4507 470.66 32.2653 471.284 32.924C471.943 33.548 472.74 34.068 473.676 34.484C474.647 34.8653 475.999 35.316 477.732 35.836C480.089 36.5293 482.013 37.2227 483.504 37.916C484.995 38.6093 486.277 39.6493 487.352 41.036C488.427 42.4227 488.964 44.2427 488.964 46.496C488.964 48.4373 488.461 50.24 487.456 51.904C486.451 53.568 484.977 54.9027 483.036 55.908C481.095 56.8787 478.789 57.364 476.12 57.364ZM512.124 57.364C508.726 57.364 505.606 56.5667 502.764 54.972C499.921 53.3773 497.668 51.176 496.004 48.368C494.34 45.5253 493.508 42.3187 493.508 38.748C493.508 35.212 494.34 32.04 496.004 29.232C497.668 26.3893 499.921 24.1707 502.764 22.576C505.606 20.9813 508.726 20.184 512.124 20.184C515.556 20.184 518.676 20.9813 521.484 22.576C524.326 24.1707 526.562 26.3893 528.192 29.232C529.856 32.04 530.688 35.212 530.688 38.748C530.688 42.3187 529.856 45.5253 528.192 48.368C526.562 51.176 524.326 53.3773 521.484 54.972C518.641 56.5667 515.521 57.364 512.124 57.364ZM512.124 50.864C514.308 50.864 516.232 50.3787 517.896 49.408C519.56 48.4027 520.86 46.9813 521.796 45.144C522.732 43.3067 523.2 41.1747 523.2 38.748C523.2 36.3213 522.732 34.2067 521.796 32.404C520.86 30.5667 519.56 29.1627 517.896 28.192C516.232 27.2213 514.308 26.736 512.124 26.736C509.94 26.736 507.998 27.2213 506.3 28.192C504.636 29.1627 503.336 30.5667 502.4 32.404C501.464 34.2067 500.996 36.3213 500.996 38.748C500.996 41.1747 501.464 43.3067 502.4 45.144C503.336 46.9813 504.636 48.4027 506.3 49.408C507.998 50.3787 509.94 50.864 512.124 50.864ZM567.148 57H559.868L543.384 32.092V57H536.104V20.652H543.384L559.868 45.612V20.652H567.148V57ZM581.622 26.58V35.68H593.842V41.452H581.622V51.072H595.402V57H574.342V20.652H595.402V26.58H581.622ZM609.298 51.228H621.258V57H602.018V20.704H609.298V51.228Z" fill="#CBCBCB"/>
<path d="M20.436 65.364C17.0387 65.364 13.9187 64.5667 11.076 62.972C8.23333 61.3773 5.98 59.176 4.316 56.368C2.652 53.5253 1.82 50.3187 1.82 46.748C1.82 43.212 2.652 40.04 4.316 37.232C5.98 34.3893 8.23333 32.1707 11.076 30.576C13.9187 28.9813 17.0387 28.184 20.436 28.184C23.868 28.184 26.988 28.9813 29.796 30.576C32.6387 32.1707 34.8747 34.3893 36.504 37.232C38.168 40.04 39 43.212 39 46.748C39 50.3187 38.168 53.5253 36.504 56.368C34.8747 59.176 32.6387 61.3773 29.796 62.972C26.9533 64.5667 23.8333 65.364 20.436 65.364ZM20.436 58.864C22.62 58.864 24.544 58.3787 26.208 57.408C27.872 56.4027 29.172 54.9813 30.108 53.144C31.044 51.3067 31.512 49.1747 31.512 46.748C31.512 44.3213 31.044 42.2067 30.108 40.404C29.172 38.5667 27.872 37.1627 26.208 36.192C24.544 35.2213 22.62 34.736 20.436 34.736C18.252 34.736 16.3107 35.2213 14.612 36.192C12.948 37.1627 11.648 38.5667 10.712 40.404C9.776 42.2067 9.308 44.3213 9.308 46.748C9.308 49.1747 9.776 51.3067 10.712 53.144C11.648 54.9813 12.948 56.4027 14.612 57.408C16.3107 58.3787 18.252 58.864 20.436 58.864ZM51.5921 28.704V51.168C51.5921 53.6293 52.2335 55.5187 53.5161 56.836C54.7988 58.1187 56.6015 58.76 58.9241 58.76C61.2815 58.76 63.1015 58.1187 64.3841 56.836C65.6668 55.5187 66.3081 53.6293 66.3081 51.168V28.704H73.6401V51.116C73.6401 54.2013 72.9641 56.8187 71.6121 58.968C70.2948 61.0827 68.5095 62.6773 66.2561 63.752C64.0375 64.8267 61.5588 65.364 58.8201 65.364C56.1161 65.364 53.6548 64.8267 51.4361 63.752C49.2521 62.6773 47.5188 61.0827 46.2361 58.968C44.9535 56.8187 44.3121 54.2013 44.3121 51.116V28.704H51.5921ZM99.3939 65L91.3859 50.856H87.9539V65H80.6739V28.704H94.2979C97.1059 28.704 99.4979 29.2067 101.474 30.212C103.45 31.1827 104.923 32.5173 105.894 34.216C106.899 35.88 107.402 37.752 107.402 39.832C107.402 42.224 106.709 44.3907 105.322 46.332C103.935 48.2387 101.873 49.556 99.1339 50.284L107.818 65H99.3939ZM87.9539 45.396H94.0379C96.0139 45.396 97.4873 44.928 98.4579 43.992C99.4286 43.0213 99.9139 41.6867 99.9139 39.988C99.9139 38.324 99.4286 37.0413 98.4579 36.14C97.4873 35.204 96.0139 34.736 94.0379 34.736H87.9539V45.396ZM165.949 28.704V65H158.669V41.392L148.945 65H143.433L133.657 41.392V65H126.377V28.704H134.645L146.189 55.692L157.733 28.704H165.949ZM180.427 34.58V43.68H192.647V49.452H180.427V59.072H194.207V65H173.147V28.652H194.207V34.58H180.427ZM213.51 28.704C217.324 28.704 220.669 29.4493 223.546 30.94C226.458 32.4307 228.694 34.5627 230.254 37.336C231.849 40.0747 232.646 43.264 232.646 46.904C232.646 50.544 231.849 53.7333 230.254 56.472C228.694 59.176 226.458 61.2733 223.546 62.764C220.669 64.2547 217.324 65 213.51 65H200.822V28.704H213.51ZM213.25 58.812C217.064 58.812 220.01 57.772 222.09 55.692C224.17 53.612 225.21 50.6827 225.21 46.904C225.21 43.1253 224.17 40.1787 222.09 38.064C220.01 35.9147 217.064 34.84 213.25 34.84H208.102V58.812H213.25ZM245.376 28.704V65H238.096V28.704H245.376ZM250.8 46.8C250.8 43.2293 251.598 40.04 253.192 37.232C254.822 34.3893 257.023 32.188 259.796 30.628C262.604 29.0333 265.742 28.236 269.208 28.236C273.264 28.236 276.818 29.276 279.868 31.356C282.919 33.436 285.051 36.3133 286.264 39.988H277.892C277.06 38.2547 275.882 36.9547 274.356 36.088C272.866 35.2213 271.132 34.788 269.156 34.788C267.042 34.788 265.152 35.2907 263.488 36.296C261.859 37.2667 260.576 38.6533 259.64 40.456C258.739 42.2587 258.288 44.3733 258.288 46.8C258.288 49.192 258.739 51.3067 259.64 53.144C260.576 54.9467 261.859 56.3507 263.488 57.356C265.152 58.3267 267.042 58.812 269.156 58.812C271.132 58.812 272.866 58.3787 274.356 57.512C275.882 56.6107 277.06 55.2933 277.892 53.56H286.264C285.051 57.2693 282.919 60.164 279.868 62.244C276.852 64.2893 273.299 65.312 269.208 65.312C265.742 65.312 262.604 64.532 259.796 62.972C257.023 61.3773 254.822 59.176 253.192 56.368C251.598 53.56 250.8 50.3707 250.8 46.8ZM314.739 58.084H300.283L297.891 65H290.247L303.299 28.652H311.775L324.827 65H317.131L314.739 58.084ZM312.763 52.26L307.511 37.076L302.259 52.26H312.763ZM336.985 59.228H348.945V65H329.705V28.704H336.985V59.228ZM392.431 39.936C392.431 41.8773 391.963 43.6973 391.027 45.396C390.126 47.0947 388.687 48.464 386.711 49.504C384.77 50.544 382.308 51.064 379.327 51.064H373.243V65H365.963V28.704H379.327C382.135 28.704 384.527 29.1893 386.503 30.16C388.479 31.1307 389.952 32.4653 390.923 34.164C391.928 35.8627 392.431 37.7867 392.431 39.936ZM379.015 45.188C381.026 45.188 382.516 44.7373 383.487 43.836C384.458 42.9 384.943 41.6 384.943 39.936C384.943 36.4 382.967 34.632 379.015 34.632H373.243V45.188H379.015ZM404.88 34.58V43.68H417.1V49.452H404.88V59.072H418.66V65H397.6V28.652H418.66V34.58H404.88ZM443.996 65L435.988 50.856H432.556V65H425.276V28.704H438.9C441.708 28.704 444.1 29.2067 446.076 30.212C448.052 31.1827 449.525 32.5173 450.496 34.216C451.501 35.88 452.004 37.752 452.004 39.832C452.004 42.224 451.31 44.3907 449.924 46.332C448.537 48.2387 446.474 49.556 443.736 50.284L452.42 65H443.996ZM432.556 45.396H438.64C440.616 45.396 442.089 44.928 443.06 43.992C444.03 43.0213 444.516 41.6867 444.516 39.988C444.516 38.324 444.03 37.0413 443.06 36.14C442.089 35.204 440.616 34.736 438.64 34.736H432.556V45.396ZM471.12 65.364C468.589 65.364 466.301 64.9307 464.256 64.064C462.245 63.1973 460.651 61.9493 459.472 60.32C458.293 58.6907 457.687 56.7667 457.652 54.548H465.452C465.556 56.0387 466.076 57.2173 467.012 58.084C467.983 58.9507 469.3 59.384 470.964 59.384C472.663 59.384 473.997 58.9853 474.968 58.188C475.939 57.356 476.424 56.2813 476.424 54.964C476.424 53.8893 476.095 53.0053 475.436 52.312C474.777 51.6187 473.945 51.0813 472.94 50.7C471.969 50.284 470.617 49.8333 468.884 49.348C466.527 48.6547 464.603 47.9787 463.112 47.32C461.656 46.6267 460.391 45.604 459.316 44.252C458.276 42.8653 457.756 41.028 457.756 38.74C457.756 36.5907 458.293 34.7187 459.368 33.124C460.443 31.5293 461.951 30.316 463.892 29.484C465.833 28.6173 468.052 28.184 470.548 28.184C474.292 28.184 477.325 29.1027 479.648 30.94C482.005 32.7427 483.305 35.2733 483.548 38.532H475.54C475.471 37.284 474.933 36.2613 473.928 35.464C472.957 34.632 471.657 34.216 470.028 34.216C468.607 34.216 467.463 34.58 466.596 35.308C465.764 36.036 465.348 37.0933 465.348 38.48C465.348 39.4507 465.66 40.2653 466.284 40.924C466.943 41.548 467.74 42.068 468.676 42.484C469.647 42.8653 470.999 43.316 472.732 43.836C475.089 44.5293 477.013 45.2227 478.504 45.916C479.995 46.6093 481.277 47.6493 482.352 49.036C483.427 50.4227 483.964 52.2427 483.964 54.496C483.964 56.4373 483.461 58.24 482.456 59.904C481.451 61.568 479.977 62.9027 478.036 63.908C476.095 64.8787 473.789 65.364 471.12 65.364ZM507.124 65.364C503.726 65.364 500.606 64.5667 497.764 62.972C494.921 61.3773 492.668 59.176 491.004 56.368C489.34 53.5253 488.508 50.3187 488.508 46.748C488.508 43.212 489.34 40.04 491.004 37.232C492.668 34.3893 494.921 32.1707 497.764 30.576C500.606 28.9813 503.726 28.184 507.124 28.184C510.556 28.184 513.676 28.9813 516.484 30.576C519.326 32.1707 521.562 34.3893 523.192 37.232C524.856 40.04 525.688 43.212 525.688 46.748C525.688 50.3187 524.856 53.5253 523.192 56.368C521.562 59.176 519.326 61.3773 516.484 62.972C513.641 64.5667 510.521 65.364 507.124 65.364ZM507.124 58.864C509.308 58.864 511.232 58.3787 512.896 57.408C514.56 56.4027 515.86 54.9813 516.796 53.144C517.732 51.3067 518.2 49.1747 518.2 46.748C518.2 44.3213 517.732 42.2067 516.796 40.404C515.86 38.5667 514.56 37.1627 512.896 36.192C511.232 35.2213 509.308 34.736 507.124 34.736C504.94 34.736 502.998 35.2213 501.3 36.192C499.636 37.1627 498.336 38.5667 497.4 40.404C496.464 42.2067 495.996 44.3213 495.996 46.748C495.996 49.1747 496.464 51.3067 497.4 53.144C498.336 54.9813 499.636 56.4027 501.3 57.408C502.998 58.3787 504.94 58.864 507.124 58.864ZM562.148 65H554.868L538.384 40.092V65H531.104V28.652H538.384L554.868 53.612V28.652H562.148V65ZM576.622 34.58V43.68H588.842V49.452H576.622V59.072H590.402V65H569.342V28.652H590.402V34.58H576.622ZM604.298 59.228H616.258V65H597.018V28.704H604.298V59.228Z" fill="black"/>
</svg>
