<svg width="271" height="63" viewBox="0 0 271 63" fill="none" xmlns="http://www.w3.org/2000/svg">
<path d="M17.934 42.266C15.4513 42.266 13.1713 41.6833 11.094 40.518C9.01667 39.3527 7.37 37.744 6.154 35.692C4.938 33.6147 4.33 31.2713 4.33 28.662C4.33 26.078 4.938 23.76 6.154 21.708C7.37 19.6307 9.01667 18.0093 11.094 16.844C13.1713 15.6787 15.4513 15.096 17.934 15.096C20.442 15.096 22.722 15.6787 24.774 16.844C26.8513 18.0093 28.4853 19.6307 29.676 21.708C30.892 23.76 31.5 26.078 31.5 28.662C31.5 31.2713 30.892 33.6147 29.676 35.692C28.4853 37.744 26.8513 39.3527 24.774 40.518C22.6967 41.6833 20.4167 42.266 17.934 42.266ZM17.934 37.516C19.53 37.516 20.936 37.1613 22.152 36.452C23.368 35.7173 24.318 34.6787 25.002 33.336C25.686 31.9933 26.028 30.4353 26.028 28.662C26.028 26.8887 25.686 25.3433 25.002 24.026C24.318 22.6833 23.368 21.6573 22.152 20.948C20.936 20.2387 19.53 19.884 17.934 19.884C16.338 19.884 14.9193 20.2387 13.678 20.948C12.462 21.6573 11.512 22.6833 10.828 24.026C10.144 25.3433 9.802 26.8887 9.802 28.662C9.802 30.4353 10.144 31.9933 10.828 33.336C11.512 34.6787 12.462 35.7173 13.678 36.452C14.9193 37.1613 16.338 37.516 17.934 37.516ZM40.7019 15.476V31.892C40.7019 33.6907 41.1706 35.0713 42.1079 36.034C43.0453 36.9713 44.3626 37.44 46.0599 37.44C47.7826 37.44 49.1126 36.9713 50.0499 36.034C50.9873 35.0713 51.4559 33.6907 51.4559 31.892V15.476H56.8139V31.854C56.8139 34.1087 56.3199 36.0213 55.3319 37.592C54.3693 39.1373 53.0646 40.3027 51.4179 41.088C49.7966 41.8733 47.9853 42.266 45.9839 42.266C44.0079 42.266 42.2093 41.8733 40.5879 41.088C38.9919 40.3027 37.7253 39.1373 36.7879 37.592C35.8506 36.0213 35.3819 34.1087 35.3819 31.854V15.476H40.7019ZM75.634 42L69.782 31.664H67.274V42H61.954V15.476H71.91C73.962 15.476 75.71 15.8433 77.154 16.578C78.598 17.2873 79.6747 18.2627 80.384 19.504C81.1187 20.72 81.486 22.088 81.486 23.608C81.486 25.356 80.9794 26.9393 79.966 28.358C78.9527 29.7513 77.4454 30.714 75.444 31.246L81.79 42H75.634ZM67.274 27.674H71.72C73.164 27.674 74.2407 27.332 74.95 26.648C75.6594 25.9387 76.014 24.9633 76.014 23.722C76.014 22.506 75.6594 21.5687 74.95 20.91C74.2407 20.226 73.164 19.884 71.72 19.884H67.274V27.674ZM104.51 42.266C102.661 42.266 100.989 41.9493 99.4945 41.316C98.0251 40.6827 96.8598 39.7707 95.9985 38.58C95.1371 37.3893 94.6938 35.9833 94.6685 34.362H100.368C100.444 35.4513 100.824 36.3127 101.508 36.946C102.218 37.5793 103.18 37.896 104.396 37.896C105.638 37.896 106.613 37.6047 107.322 37.022C108.032 36.414 108.386 35.6287 108.386 34.666C108.386 33.8807 108.146 33.2347 107.664 32.728C107.183 32.2213 106.575 31.8287 105.84 31.55C105.131 31.246 104.143 30.9167 102.876 30.562C101.154 30.0553 99.7478 29.5613 98.6585 29.08C97.5945 28.5733 96.6698 27.826 95.8845 26.838C95.1245 25.8247 94.7445 24.482 94.7445 22.81C94.7445 21.2393 95.1371 19.8713 95.9225 18.706C96.7078 17.5407 97.8098 16.654 99.2285 16.046C100.647 15.4127 102.268 15.096 104.092 15.096C106.828 15.096 109.045 15.7673 110.742 17.11C112.465 18.4273 113.415 20.2767 113.592 22.658H107.74C107.69 21.746 107.297 20.9987 106.562 20.416C105.853 19.808 104.903 19.504 103.712 19.504C102.674 19.504 101.838 19.77 101.204 20.302C100.596 20.834 100.292 21.6067 100.292 22.62C100.292 23.3293 100.52 23.9247 100.976 24.406C101.458 24.862 102.04 25.242 102.724 25.546C103.434 25.8247 104.422 26.154 105.688 26.534C107.411 27.0407 108.817 27.5473 109.906 28.054C110.996 28.5607 111.933 29.3207 112.718 30.334C113.504 31.3473 113.896 32.6773 113.896 34.324C113.896 35.7427 113.529 37.06 112.794 38.276C112.06 39.492 110.983 40.4673 109.564 41.202C108.146 41.9113 106.461 42.266 104.51 42.266ZM123.829 19.77V26.42H132.759V30.638H123.829V37.668H133.899V42H118.509V15.438H133.899V19.77H123.829ZM152.413 42L146.561 31.664H144.053V42H138.733V15.476H148.689C150.741 15.476 152.489 15.8433 153.933 16.578C155.377 17.2873 156.454 18.2627 157.163 19.504C157.898 20.72 158.265 22.088 158.265 23.608C158.265 25.356 157.759 26.9393 156.745 28.358C155.732 29.7513 154.225 30.714 152.223 31.246L158.569 42H152.413ZM144.053 27.674H148.499C149.943 27.674 151.02 27.332 151.729 26.648C152.439 25.9387 152.793 24.9633 152.793 23.722C152.793 22.506 152.439 21.5687 151.729 20.91C151.02 20.226 149.943 19.884 148.499 19.884H144.053V27.674ZM186.903 15.476L177.175 42H170.715L160.987 15.476H166.687L173.983 36.566L181.241 15.476H186.903ZM195.413 15.476V42H190.093V15.476H195.413ZM199.377 28.7C199.377 26.0907 199.96 23.76 201.125 21.708C202.316 19.6307 203.924 18.022 205.951 16.882C208.003 15.7167 210.296 15.134 212.829 15.134C215.793 15.134 218.39 15.894 220.619 17.414C222.848 18.934 224.406 21.0367 225.293 23.722H219.175C218.567 22.4553 217.706 21.5053 216.591 20.872C215.502 20.2387 214.235 19.922 212.791 19.922C211.246 19.922 209.865 20.2893 208.649 21.024C207.458 21.7333 206.521 22.7467 205.837 24.064C205.178 25.3813 204.849 26.9267 204.849 28.7C204.849 30.448 205.178 31.9933 205.837 33.336C206.521 34.6533 207.458 35.6793 208.649 36.414C209.865 37.1233 211.246 37.478 212.791 37.478C214.235 37.478 215.502 37.1613 216.591 36.528C217.706 35.8693 218.567 34.9067 219.175 33.64H225.293C224.406 36.3507 222.848 38.466 220.619 39.986C218.415 41.4807 215.818 42.228 212.829 42.228C210.296 42.228 208.003 41.658 205.951 40.518C203.924 39.3527 202.316 37.744 201.125 35.692C199.96 33.64 199.377 31.3093 199.377 28.7ZM235.157 19.77V26.42H244.087V30.638H235.157V37.668H245.227V42H229.837V15.438H245.227V19.77H235.157ZM259.219 42.266C257.37 42.266 255.698 41.9493 254.203 41.316C252.734 40.6827 251.569 39.7707 250.707 38.58C249.846 37.3893 249.403 35.9833 249.377 34.362H255.077C255.153 35.4513 255.533 36.3127 256.217 36.946C256.927 37.5793 257.889 37.896 259.105 37.896C260.347 37.896 261.322 37.6047 262.031 37.022C262.741 36.414 263.095 35.6287 263.095 34.666C263.095 33.8807 262.855 33.2347 262.373 32.728C261.892 32.2213 261.284 31.8287 260.549 31.55C259.84 31.246 258.852 30.9167 257.585 30.562C255.863 30.0553 254.457 29.5613 253.367 29.08C252.303 28.5733 251.379 27.826 250.593 26.838C249.833 25.8247 249.453 24.482 249.453 22.81C249.453 21.2393 249.846 19.8713 250.631 18.706C251.417 17.5407 252.519 16.654 253.937 16.046C255.356 15.4127 256.977 15.096 258.801 15.096C261.537 15.096 263.754 15.7673 265.451 17.11C267.174 18.4273 268.124 20.2767 268.301 22.658H262.449C262.399 21.746 262.006 20.9987 261.271 20.416C260.562 19.808 259.612 19.504 258.421 19.504C257.383 19.504 256.547 19.77 255.913 20.302C255.305 20.834 255.001 21.6067 255.001 22.62C255.001 23.3293 255.229 23.9247 255.685 24.406C256.167 24.862 256.749 25.242 257.433 25.546C258.143 25.8247 259.131 26.154 260.397 26.534C262.12 27.0407 263.526 27.5473 264.615 28.054C265.705 28.5607 266.642 29.3207 267.427 30.334C268.213 31.3473 268.605 32.6773 268.605 34.324C268.605 35.7427 268.238 37.06 267.503 38.276C266.769 39.492 265.692 40.4673 264.273 41.202C262.855 41.9113 261.17 42.266 259.219 42.266Z" fill="#CBCBCB"/>
<path d="M14.934 48.266C12.4513 48.266 10.1713 47.6833 8.094 46.518C6.01667 45.3527 4.37 43.744 3.154 41.692C1.938 39.6147 1.33 37.2713 1.33 34.662C1.33 32.078 1.938 29.76 3.154 27.708C4.37 25.6307 6.01667 24.0093 8.094 22.844C10.1713 21.6787 12.4513 21.096 14.934 21.096C17.442 21.096 19.722 21.6787 21.774 22.844C23.8513 24.0093 25.4853 25.6307 26.676 27.708C27.892 29.76 28.5 32.078 28.5 34.662C28.5 37.2713 27.892 39.6147 26.676 41.692C25.4853 43.744 23.8513 45.3527 21.774 46.518C19.6967 47.6833 17.4167 48.266 14.934 48.266ZM14.934 43.516C16.53 43.516 17.936 43.1613 19.152 42.452C20.368 41.7173 21.318 40.6787 22.002 39.336C22.686 37.9933 23.028 36.4353 23.028 34.662C23.028 32.8887 22.686 31.3433 22.002 30.026C21.318 28.6833 20.368 27.6573 19.152 26.948C17.936 26.2387 16.53 25.884 14.934 25.884C13.338 25.884 11.9193 26.2387 10.678 26.948C9.462 27.6573 8.512 28.6833 7.828 30.026C7.144 31.3433 6.802 32.8887 6.802 34.662C6.802 36.4353 7.144 37.9933 7.828 39.336C8.512 40.6787 9.462 41.7173 10.678 42.452C11.9193 43.1613 13.338 43.516 14.934 43.516ZM37.7019 21.476V37.892C37.7019 39.6907 38.1706 41.0713 39.1079 42.034C40.0453 42.9713 41.3626 43.44 43.0599 43.44C44.7826 43.44 46.1126 42.9713 47.0499 42.034C47.9873 41.0713 48.4559 39.6907 48.4559 37.892V21.476H53.8139V37.854C53.8139 40.1087 53.3199 42.0213 52.3319 43.592C51.3693 45.1373 50.0646 46.3027 48.4179 47.088C46.7966 47.8733 44.9853 48.266 42.9839 48.266C41.0079 48.266 39.2093 47.8733 37.5879 47.088C35.9919 46.3027 34.7253 45.1373 33.7879 43.592C32.8506 42.0213 32.3819 40.1087 32.3819 37.854V21.476H37.7019ZM72.634 48L66.782 37.664H64.274V48H58.954V21.476H68.91C70.962 21.476 72.71 21.8433 74.154 22.578C75.598 23.2873 76.6747 24.2627 77.384 25.504C78.1187 26.72 78.486 28.088 78.486 29.608C78.486 31.356 77.9794 32.9393 76.966 34.358C75.9527 35.7513 74.4454 36.714 72.444 37.246L78.79 48H72.634ZM64.274 33.674H68.72C70.164 33.674 71.2407 33.332 71.95 32.648C72.6594 31.9387 73.014 30.9633 73.014 29.722C73.014 28.506 72.6594 27.5687 71.95 26.91C71.2407 26.226 70.164 25.884 68.72 25.884H64.274V33.674Z" fill="#2B2B2B"/>
<path d="M101.51 48.266C99.6611 48.266 97.9891 47.9493 96.4945 47.316C95.0251 46.6827 93.8598 45.7707 92.9985 44.58C92.1371 43.3893 91.6938 41.9833 91.6685 40.362H97.3685C97.4445 41.4513 97.8245 42.3127 98.5085 42.946C99.2178 43.5793 100.18 43.896 101.396 43.896C102.638 43.896 103.613 43.6047 104.322 43.022C105.032 42.414 105.386 41.6287 105.386 40.666C105.386 39.8807 105.146 39.2347 104.664 38.728C104.183 38.2213 103.575 37.8287 102.84 37.55C102.131 37.246 101.143 36.9167 99.8765 36.562C98.1538 36.0553 96.7478 35.5613 95.6585 35.08C94.5945 34.5733 93.6698 33.826 92.8845 32.838C92.1245 31.8247 91.7445 30.482 91.7445 28.81C91.7445 27.2393 92.1371 25.8713 92.9225 24.706C93.7078 23.5407 94.8098 22.654 96.2285 22.046C97.6471 21.4127 99.2685 21.096 101.092 21.096C103.828 21.096 106.045 21.7673 107.742 23.11C109.465 24.4273 110.415 26.2767 110.592 28.658H104.74C104.69 27.746 104.297 26.9987 103.562 26.416C102.853 25.808 101.903 25.504 100.712 25.504C99.6738 25.504 98.8378 25.77 98.2045 26.302C97.5965 26.834 97.2925 27.6067 97.2925 28.62C97.2925 29.3293 97.5205 29.9247 97.9765 30.406C98.4578 30.862 99.0405 31.242 99.7245 31.546C100.434 31.8247 101.422 32.154 102.688 32.534C104.411 33.0407 105.817 33.5473 106.906 34.054C107.996 34.5607 108.933 35.3207 109.718 36.334C110.504 37.3473 110.896 38.6773 110.896 40.324C110.896 41.7427 110.529 43.06 109.794 44.276C109.06 45.492 107.983 46.4673 106.564 47.202C105.146 47.9113 103.461 48.266 101.51 48.266ZM120.829 25.77V32.42H129.759V36.638H120.829V43.668H130.899V48H115.509V21.438H130.899V25.77H120.829ZM149.413 48L143.561 37.664H141.053V48H135.733V21.476H145.689C147.741 21.476 149.489 21.8433 150.933 22.578C152.377 23.2873 153.454 24.2627 154.163 25.504C154.898 26.72 155.265 28.088 155.265 29.608C155.265 31.356 154.759 32.9393 153.745 34.358C152.732 35.7513 151.225 36.714 149.223 37.246L155.569 48H149.413ZM141.053 33.674H145.499C146.943 33.674 148.02 33.332 148.729 32.648C149.439 31.9387 149.793 30.9633 149.793 29.722C149.793 28.506 149.439 27.5687 148.729 26.91C148.02 26.226 146.943 25.884 145.499 25.884H141.053V33.674ZM183.903 21.476L174.175 48H167.715L157.987 21.476H163.687L170.983 42.566L178.241 21.476H183.903ZM192.413 21.476V48H187.093V21.476H192.413ZM196.377 34.7C196.377 32.0907 196.96 29.76 198.125 27.708C199.316 25.6307 200.924 24.022 202.951 22.882C205.003 21.7167 207.296 21.134 209.829 21.134C212.793 21.134 215.39 21.894 217.619 23.414C219.848 24.934 221.406 27.0367 222.293 29.722H216.175C215.567 28.4553 214.706 27.5053 213.591 26.872C212.502 26.2387 211.235 25.922 209.791 25.922C208.246 25.922 206.865 26.2893 205.649 27.024C204.458 27.7333 203.521 28.7467 202.837 30.064C202.178 31.3813 201.849 32.9267 201.849 34.7C201.849 36.448 202.178 37.9933 202.837 39.336C203.521 40.6533 204.458 41.6793 205.649 42.414C206.865 43.1233 208.246 43.478 209.791 43.478C211.235 43.478 212.502 43.1613 213.591 42.528C214.706 41.8693 215.567 40.9067 216.175 39.64H222.293C221.406 42.3507 219.848 44.466 217.619 45.986C215.415 47.4807 212.818 48.228 209.829 48.228C207.296 48.228 205.003 47.658 202.951 46.518C200.924 45.3527 199.316 43.744 198.125 41.692C196.96 39.64 196.377 37.3093 196.377 34.7ZM232.157 25.77V32.42H241.087V36.638H232.157V43.668H242.227V48H226.837V21.438H242.227V25.77H232.157ZM256.219 48.266C254.37 48.266 252.698 47.9493 251.203 47.316C249.734 46.6827 248.569 45.7707 247.707 44.58C246.846 43.3893 246.403 41.9833 246.377 40.362H252.077C252.153 41.4513 252.533 42.3127 253.217 42.946C253.927 43.5793 254.889 43.896 256.105 43.896C257.347 43.896 258.322 43.6047 259.031 43.022C259.741 42.414 260.095 41.6287 260.095 40.666C260.095 39.8807 259.855 39.2347 259.373 38.728C258.892 38.2213 258.284 37.8287 257.549 37.55C256.84 37.246 255.852 36.9167 254.585 36.562C252.863 36.0553 251.457 35.5613 250.367 35.08C249.303 34.5733 248.379 33.826 247.593 32.838C246.833 31.8247 246.453 30.482 246.453 28.81C246.453 27.2393 246.846 25.8713 247.631 24.706C248.417 23.5407 249.519 22.654 250.937 22.046C252.356 21.4127 253.977 21.096 255.801 21.096C258.537 21.096 260.754 21.7673 262.451 23.11C264.174 24.4273 265.124 26.2767 265.301 28.658H259.449C259.399 27.746 259.006 26.9987 258.271 26.416C257.562 25.808 256.612 25.504 255.421 25.504C254.383 25.504 253.547 25.77 252.913 26.302C252.305 26.834 252.001 27.6067 252.001 28.62C252.001 29.3293 252.229 29.9247 252.685 30.406C253.167 30.862 253.749 31.242 254.433 31.546C255.143 31.8247 256.131 32.154 257.397 32.534C259.12 33.0407 260.526 33.5473 261.615 34.054C262.705 34.5607 263.642 35.3207 264.427 36.334C265.213 37.3473 265.605 38.6773 265.605 40.324C265.605 41.7427 265.238 43.06 264.503 44.276C263.769 45.492 262.692 46.4673 261.273 47.202C259.855 47.9113 258.17 48.266 256.219 48.266Z" fill="#0071BC"/>
</svg>
