<svg width="204" height="87" viewBox="0 0 204 87" fill="none" xmlns="http://www.w3.org/2000/svg">
<g filter="url(#filter0_dd_1048_23851)">
<rect x="8" y="6" width="188" height="71" rx="18" fill="#0071BC"/>
<path d="M50.134 46.1203C53.9383 44.1656 56.8223 42.6761 57.0709 42.5603C57.8661 42.1646 58.6874 41.1172 57.0709 40.3037C56.549 40.0478 53.7391 38.6047 50.134 36.7437L45.1362 41.4667L50.134 46.1202V46.1203Z" fill="#FFD900"/>
<path d="M45.1292 41.4667L29.2158 56.4747C29.5893 56.521 30.011 56.4283 30.5082 56.1726C31.552 55.6379 42.6173 49.9833 50.1269 46.1213L45.1292 41.4667Z" fill="#F43249"/>
<path d="M45.1392 41.4666L50.137 36.7668C50.137 36.7668 31.6376 27.3194 30.5183 26.7617C30.0966 26.528 29.624 26.4585 29.2012 26.528L45.1392 41.4666Z" fill="#00EE76"/>
<path d="M45.1315 41.4666L29.1935 26.528C28.5466 26.6679 28 27.2027 28 28.2963V54.7063C28 55.7072 28.423 56.4282 29.2182 56.4978L45.1315 41.4666Z" fill="#00D3FF"/>
<path d="M96.5924 31.295H93.2484L92.6324 33H91.5764L94.3484 25.377H95.5034L98.2644 33H97.2084L96.5924 31.295ZM96.3064 30.481L94.9204 26.609L93.5344 30.481H96.3064ZM105.808 25.333L102.915 33H101.76L98.8675 25.333H99.9345L102.343 31.944L104.752 25.333H105.808ZM111.438 31.295H108.094L107.478 33H106.422L109.194 25.377H110.349L113.11 33H112.054L111.438 31.295ZM111.152 30.481L109.766 26.609L108.38 30.481H111.152ZM115.319 25.333V33H114.318V25.333H115.319ZM118.026 32.186H120.71V33H117.025V25.333H118.026V32.186ZM126.305 31.295H122.961L122.345 33H121.289L124.061 25.377H125.216L127.977 33H126.921L126.305 31.295ZM126.019 30.481L124.633 26.609L123.247 30.481H126.019ZM133.024 29.051C133.303 29.095 133.556 29.2087 133.783 29.392C134.018 29.5753 134.201 29.8027 134.333 30.074C134.473 30.3453 134.542 30.635 134.542 30.943C134.542 31.3317 134.443 31.6837 134.245 31.999C134.047 32.307 133.758 32.5527 133.376 32.736C133.002 32.912 132.559 33 132.045 33H129.185V25.333H131.935C132.456 25.333 132.9 25.421 133.266 25.597C133.633 25.7657 133.908 25.9967 134.091 26.29C134.275 26.5833 134.366 26.9133 134.366 27.28C134.366 27.7347 134.242 28.1123 133.992 28.413C133.75 28.7063 133.428 28.919 133.024 29.051ZM130.186 28.644H131.869C132.339 28.644 132.702 28.534 132.958 28.314C133.215 28.094 133.343 27.7897 133.343 27.401C133.343 27.0123 133.215 26.708 132.958 26.488C132.702 26.268 132.331 26.158 131.847 26.158H130.186V28.644ZM131.957 32.175C132.456 32.175 132.845 32.0577 133.123 31.823C133.402 31.5883 133.541 31.262 133.541 30.844C133.541 30.4187 133.395 30.085 133.101 29.843C132.808 29.5937 132.416 29.469 131.924 29.469H130.186V32.175H131.957ZM136.932 32.186H139.616V33H135.931V25.333H136.932V32.186ZM141.681 26.147V28.71H144.475V29.535H141.681V32.175H144.805V33H140.68V25.322H144.805V26.147H141.681ZM152.728 33.077C152.016 33.077 151.367 32.912 150.781 32.582C150.194 32.2447 149.728 31.779 149.384 31.185C149.046 30.5837 148.878 29.909 148.878 29.161C148.878 28.413 149.046 27.742 149.384 27.148C149.728 26.5467 150.194 26.081 150.781 25.751C151.367 25.4137 152.016 25.245 152.728 25.245C153.446 25.245 154.099 25.4137 154.686 25.751C155.272 26.081 155.734 26.543 156.072 27.137C156.409 27.731 156.578 28.4057 156.578 29.161C156.578 29.9163 156.409 30.591 156.072 31.185C155.734 31.779 155.272 32.2447 154.686 32.582C154.099 32.912 153.446 33.077 152.728 33.077ZM152.728 32.208C153.263 32.208 153.743 32.0833 154.169 31.834C154.601 31.5847 154.939 31.229 155.181 30.767C155.43 30.305 155.555 29.7697 155.555 29.161C155.555 28.545 155.43 28.0097 155.181 27.555C154.939 27.093 154.605 26.7373 154.18 26.488C153.754 26.2387 153.27 26.114 152.728 26.114C152.185 26.114 151.701 26.2387 151.276 26.488C150.85 26.7373 150.513 27.093 150.264 27.555C150.022 28.0097 149.901 28.545 149.901 29.161C149.901 29.7697 150.022 30.305 150.264 30.767C150.513 31.229 150.85 31.5847 151.276 31.834C151.708 32.0833 152.192 32.208 152.728 32.208ZM163.927 33H162.926L158.9 26.895V33H157.899V25.322H158.9L162.926 31.416V25.322H163.927V33Z" fill="white"/>
<path d="M89.3652 48.08C89.0772 47.5253 88.6772 47.1093 88.1652 46.832C87.6532 46.544 87.0612 46.4 86.3892 46.4C85.6532 46.4 84.9972 46.5653 84.4212 46.896C83.8452 47.2267 83.3919 47.696 83.0612 48.304C82.7412 48.912 82.5812 49.616 82.5812 50.416C82.5812 51.216 82.7412 51.9253 83.0612 52.544C83.3919 53.152 83.8452 53.6213 84.4212 53.952C84.9972 54.2827 85.6532 54.448 86.3892 54.448C87.3812 54.448 88.1865 54.1707 88.8052 53.616C89.4239 53.0613 89.8025 52.3093 89.9412 51.36H85.7652V49.904H91.8932V51.328C91.7759 52.192 91.4665 52.9867 90.9652 53.712C90.4745 54.4373 89.8292 55.0187 89.0292 55.456C88.2399 55.8827 87.3599 56.096 86.3892 56.096C85.3439 56.096 84.3892 55.856 83.5252 55.376C82.6612 54.8853 81.9732 54.208 81.4612 53.344C80.9599 52.48 80.7092 51.504 80.7092 50.416C80.7092 49.328 80.9599 48.352 81.4612 47.488C81.9732 46.624 82.6612 45.952 83.5252 45.472C84.3999 44.9813 85.3545 44.736 86.3892 44.736C87.5732 44.736 88.6239 45.0293 89.5412 45.616C90.4692 46.192 91.1412 47.0133 91.5572 48.08H89.3652ZM97.5162 56.144C96.6842 56.144 95.9322 55.9573 95.2602 55.584C94.5882 55.2 94.0602 54.6667 93.6762 53.984C93.2922 53.2907 93.1002 52.4907 93.1002 51.584C93.1002 50.688 93.2975 49.8933 93.6922 49.2C94.0869 48.5067 94.6255 47.9733 95.3082 47.6C95.9909 47.2267 96.7535 47.04 97.5962 47.04C98.4389 47.04 99.2015 47.2267 99.8842 47.6C100.567 47.9733 101.106 48.5067 101.5 49.2C101.895 49.8933 102.092 50.688 102.092 51.584C102.092 52.48 101.89 53.2747 101.484 53.968C101.079 54.6613 100.524 55.2 99.8202 55.584C99.1269 55.9573 98.3589 56.144 97.5162 56.144ZM97.5162 54.56C97.9855 54.56 98.4229 54.448 98.8282 54.224C99.2442 54 99.5802 53.664 99.8362 53.216C100.092 52.768 100.22 52.224 100.22 51.584C100.22 50.944 100.098 50.4053 99.8522 49.968C99.6069 49.52 99.2815 49.184 98.8762 48.96C98.4709 48.736 98.0335 48.624 97.5642 48.624C97.0949 48.624 96.6575 48.736 96.2522 48.96C95.8575 49.184 95.5429 49.52 95.3082 49.968C95.0735 50.4053 94.9562 50.944 94.9562 51.584C94.9562 52.5333 95.1962 53.2693 95.6762 53.792C96.1669 54.304 96.7802 54.56 97.5162 54.56ZM107.719 56.144C106.887 56.144 106.135 55.9573 105.463 55.584C104.791 55.2 104.263 54.6667 103.879 53.984C103.495 53.2907 103.303 52.4907 103.303 51.584C103.303 50.688 103.501 49.8933 103.895 49.2C104.29 48.5067 104.829 47.9733 105.511 47.6C106.194 47.2267 106.957 47.04 107.799 47.04C108.642 47.04 109.405 47.2267 110.087 47.6C110.77 47.9733 111.309 48.5067 111.703 49.2C112.098 49.8933 112.295 50.688 112.295 51.584C112.295 52.48 112.093 53.2747 111.687 53.968C111.282 54.6613 110.727 55.2 110.023 55.584C109.33 55.9573 108.562 56.144 107.719 56.144ZM107.719 54.56C108.189 54.56 108.626 54.448 109.031 54.224C109.447 54 109.783 53.664 110.039 53.216C110.295 52.768 110.423 52.224 110.423 51.584C110.423 50.944 110.301 50.4053 110.055 49.968C109.81 49.52 109.485 49.184 109.079 48.96C108.674 48.736 108.237 48.624 107.767 48.624C107.298 48.624 106.861 48.736 106.455 48.96C106.061 49.184 105.746 49.52 105.511 49.968C105.277 50.4053 105.159 50.944 105.159 51.584C105.159 52.5333 105.399 53.2693 105.879 53.792C106.37 54.304 106.983 54.56 107.719 54.56ZM117.65 47.04C118.333 47.04 118.936 47.1787 119.458 47.456C119.992 47.7227 120.408 48.0587 120.706 48.464V47.184H122.546V56.144C122.546 56.9547 122.376 57.6747 122.034 58.304C121.693 58.944 121.197 59.4453 120.546 59.808C119.906 60.1707 119.138 60.352 118.242 60.352C117.048 60.352 116.056 60.0693 115.266 59.504C114.477 58.9493 114.029 58.192 113.922 57.232H115.73C115.869 57.6907 116.162 58.0587 116.61 58.336C117.069 58.624 117.613 58.768 118.242 58.768C118.978 58.768 119.57 58.544 120.018 58.096C120.477 57.648 120.706 56.9973 120.706 56.144V54.672C120.397 55.088 119.976 55.44 119.442 55.728C118.92 56.0053 118.322 56.144 117.65 56.144C116.882 56.144 116.178 55.952 115.538 55.568C114.909 55.1733 114.408 54.6293 114.034 53.936C113.672 53.232 113.49 52.4373 113.49 51.552C113.49 50.6667 113.672 49.8827 114.034 49.2C114.408 48.5173 114.909 47.9893 115.538 47.616C116.178 47.232 116.882 47.04 117.65 47.04ZM120.706 51.584C120.706 50.976 120.578 50.448 120.322 50C120.077 49.552 119.752 49.2107 119.346 48.976C118.941 48.7413 118.504 48.624 118.034 48.624C117.565 48.624 117.128 48.7413 116.722 48.976C116.317 49.2 115.986 49.536 115.73 49.984C115.485 50.4213 115.362 50.944 115.362 51.552C115.362 52.16 115.485 52.6933 115.73 53.152C115.986 53.6107 116.317 53.9627 116.722 54.208C117.138 54.4427 117.576 54.56 118.034 54.56C118.504 54.56 118.941 54.4427 119.346 54.208C119.752 53.9733 120.077 53.632 120.322 53.184C120.578 52.7253 120.706 52.192 120.706 51.584ZM126.766 44.16V56H124.942V44.16H126.766ZM137.241 51.376C137.241 51.7067 137.22 52.0053 137.177 52.272H130.441C130.494 52.976 130.756 53.5413 131.225 53.968C131.694 54.3947 132.27 54.608 132.953 54.608C133.934 54.608 134.628 54.1973 135.033 53.376H137.001C136.734 54.1867 136.249 54.8533 135.545 55.376C134.852 55.888 133.988 56.144 132.953 56.144C132.11 56.144 131.353 55.9573 130.681 55.584C130.02 55.2 129.497 54.6667 129.113 53.984C128.74 53.2907 128.553 52.4907 128.553 51.584C128.553 50.6773 128.734 49.8827 129.097 49.2C129.47 48.5067 129.988 47.9733 130.649 47.6C131.321 47.2267 132.089 47.04 132.953 47.04C133.785 47.04 134.526 47.2213 135.177 47.584C135.828 47.9467 136.334 48.4587 136.697 49.12C137.06 49.7707 137.241 50.5227 137.241 51.376ZM135.337 50.8C135.326 50.128 135.086 49.5893 134.617 49.184C134.148 48.7787 133.566 48.576 132.873 48.576C132.244 48.576 131.705 48.7787 131.257 49.184C130.809 49.5787 130.542 50.1173 130.457 50.8H135.337ZM150.968 48.192C150.968 48.7573 150.835 49.2907 150.568 49.792C150.302 50.2933 149.875 50.704 149.288 51.024C148.702 51.3333 147.95 51.488 147.032 51.488H145.016V56H143.192V44.88H147.032C147.886 44.88 148.606 45.0293 149.192 45.328C149.79 45.616 150.232 46.0107 150.52 46.512C150.819 47.0133 150.968 47.5733 150.968 48.192ZM147.032 50C147.726 50 148.243 49.8453 148.584 49.536C148.926 49.216 149.096 48.768 149.096 48.192C149.096 46.976 148.408 46.368 147.032 46.368H145.016V50H147.032ZM154.532 44.16V56H152.708V44.16H154.532ZM156.319 51.552C156.319 50.6667 156.5 49.8827 156.863 49.2C157.236 48.5173 157.737 47.9893 158.367 47.616C159.007 47.232 159.711 47.04 160.479 47.04C161.172 47.04 161.775 47.1787 162.287 47.456C162.809 47.7227 163.225 48.0587 163.535 48.464V47.184H165.375V56H163.535V54.688C163.225 55.104 162.804 55.4507 162.271 55.728C161.737 56.0053 161.129 56.144 160.447 56.144C159.689 56.144 158.996 55.952 158.367 55.568C157.737 55.1733 157.236 54.6293 156.863 53.936C156.5 53.232 156.319 52.4373 156.319 51.552ZM163.535 51.584C163.535 50.976 163.407 50.448 163.151 50C162.905 49.552 162.58 49.2107 162.175 48.976C161.769 48.7413 161.332 48.624 160.863 48.624C160.393 48.624 159.956 48.7413 159.551 48.976C159.145 49.2 158.815 49.536 158.559 49.984C158.313 50.4213 158.191 50.944 158.191 51.552C158.191 52.16 158.313 52.6933 158.559 53.152C158.815 53.6107 159.145 53.9627 159.551 54.208C159.967 54.4427 160.404 54.56 160.863 54.56C161.332 54.56 161.769 54.4427 162.175 54.208C162.58 53.9733 162.905 53.632 163.151 53.184C163.407 52.7253 163.535 52.192 163.535 51.584ZM175.706 47.184L170.298 60.144H168.41L170.202 55.856L166.73 47.184H168.762L171.242 53.904L173.818 47.184H175.706Z" fill="white"/>
</g>
<defs>
<filter id="filter0_dd_1048_23851" x="0" y="0" width="204" height="87" filterUnits="userSpaceOnUse" color-interpolation-filters="sRGB">
<feFlood flood-opacity="0" result="BackgroundImageFix"/>
<feColorMatrix in="SourceAlpha" type="matrix" values="0 0 0 0 0 0 0 0 0 0 0 0 0 0 0 0 0 0 127 0" result="hardAlpha"/>
<feMorphology radius="2" operator="dilate" in="SourceAlpha" result="effect1_dropShadow_1048_23851"/>
<feOffset dy="2"/>
<feGaussianBlur stdDeviation="3"/>
<feColorMatrix type="matrix" values="0 0 0 0 0 0 0 0 0 0 0 0 0 0 0 0 0 0 0.15 0"/>
<feBlend mode="normal" in2="BackgroundImageFix" result="effect1_dropShadow_1048_23851"/>
<feColorMatrix in="SourceAlpha" type="matrix" values="0 0 0 0 0 0 0 0 0 0 0 0 0 0 0 0 0 0 127 0" result="hardAlpha"/>
<feOffset dy="1"/>
<feGaussianBlur stdDeviation="1"/>
<feColorMatrix type="matrix" values="0 0 0 0 0 0 0 0 0 0 0 0 0 0 0 0 0 0 0.3 0"/>
<feBlend mode="normal" in2="effect1_dropShadow_1048_23851" result="effect2_dropShadow_1048_23851"/>
<feBlend mode="normal" in="SourceGraphic" in2="effect2_dropShadow_1048_23851" result="shape"/>
</filter>
</defs>
</svg>
