<svg width="50" height="50" viewBox="0 0 50 50" fill="none" xmlns="http://www.w3.org/2000/svg">
<path d="M25 50C18.3696 50 12.0107 47.3661 7.32233 42.6777C2.63392 37.9893 0 31.6304 0 25C0 18.3696 2.63392 12.0107 7.32233 7.32233C12.0107 2.63392 18.3696 0 25 0C31.6304 0 37.9893 2.63392 42.6777 7.32233C47.3661 12.0107 50 18.3696 50 25C50 31.6304 47.3661 37.9893 42.6777 42.6777C37.9893 47.3661 31.6304 50 25 50ZM16.25 22.5C17.2446 22.5 18.1984 22.1049 18.9017 21.4017C19.6049 20.6984 20 19.7446 20 18.75C20 17.7554 19.6049 16.8016 18.9017 16.0983C18.1984 15.3951 17.2446 15 16.25 15C15.2554 15 14.3016 15.3951 13.5983 16.0983C12.8951 16.8016 12.5 17.7554 12.5 18.75C12.5 19.7446 12.8951 20.6984 13.5983 21.4017C14.3016 22.1049 15.2554 22.5 16.25 22.5ZM33.75 22.5C34.7446 22.5 35.6984 22.1049 36.4016 21.4017C37.1049 20.6984 37.5 19.7446 37.5 18.75C37.5 17.7554 37.1049 16.8016 36.4016 16.0983C35.6984 15.3951 34.7446 15 33.75 15C32.7554 15 31.8016 15.3951 31.0983 16.0983C30.3951 16.8016 30 17.7554 30 18.75C30 19.7446 30.3951 20.6984 31.0983 21.4017C31.8016 22.1049 32.7554 22.5 33.75 22.5ZM39.15 30H10.85C11.8807 32.93 13.7955 35.4677 16.3301 37.2629C18.8647 39.0581 21.894 40.0223 25 40.0223C28.106 40.0223 31.1353 39.0581 33.6699 37.2629C36.2045 35.4677 38.1193 32.93 39.15 30Z" fill="white"/>
</svg>
