<svg width="56" height="56" viewBox="0 0 56 56" fill="none" xmlns="http://www.w3.org/2000/svg">
<rect width="56" height="56" rx="4" fill="#CCE3F2"/>
<path d="M24.3517 13C21.2766 13 18.6489 13.9813 16.8126 15.7351C14.9763 17.4877 14 19.9815 14 22.8042C14 24.933 14.815 26.5731 15.6413 28.0381C16.4664 29.5032 17.2964 30.817 17.7502 32.4533C18.2977 34.4696 18.6777 36.881 19.3127 38.8986C19.6302 39.9036 20.0115 40.8224 20.6015 41.5937C21.1928 42.365 22.1303 43 23.2191 43C24.2642 43 25.3042 42.4575 25.8367 41.6324C26.3693 40.8074 26.5005 39.8311 26.5005 38.7811C26.5005 37.4923 26.5005 35.4809 26.7743 33.8984C26.9118 33.1071 27.1455 32.4483 27.3606 32.1008C27.5743 31.7545 27.5856 31.7495 27.7506 31.7495C27.9168 31.7495 27.9256 31.7495 28.1418 32.1008C28.3556 32.4533 28.5906 33.1071 28.7269 33.8984C29.0056 35.4797 29.0006 37.4923 29.0006 38.7811C29.0006 39.8311 29.1319 40.8074 29.6644 41.6324C30.1969 42.4575 31.237 43 32.282 43C33.3758 43 34.3133 42.37 34.8996 41.5937C35.4846 40.8174 35.8709 39.8699 36.1884 38.8586C36.8234 36.8372 37.2085 34.4346 37.751 32.4521C38.2048 30.817 39.0348 29.5032 39.8611 28.0394C40.6861 26.5731 41.5011 24.933 41.5011 22.8042C41.5636 17.1302 37.2435 13 31.5782 13C29.9332 13 27.9906 13.61 27.6718 13.7038C26.6568 13.3038 25.548 13 24.3517 13ZM24.3517 15.5001C27.2481 15.5001 30.5632 18.5477 30.5632 18.5477L32.3208 16.7502C32.3208 16.7502 31.4957 16.1001 30.9145 15.6176C31.1782 15.5776 31.4082 15.5001 31.5795 15.5001C36.1047 15.5001 39.0498 18.2977 39.001 22.7667V22.8042C39.001 24.3192 38.4835 25.4618 37.7122 26.8293C36.941 28.1956 35.8997 29.7244 35.3284 31.7895C34.7334 33.9634 34.3533 36.3697 33.8058 38.1185C33.5321 38.9923 33.1945 39.6949 32.907 40.0711C32.6195 40.4474 32.5258 40.5011 32.282 40.5011C31.9007 40.5011 31.9007 40.4624 31.7745 40.2661C31.647 40.0711 31.5007 39.5536 31.5007 38.7823C31.5007 37.5073 31.5257 35.3947 31.1882 33.4696C31.017 32.5071 30.7832 31.5795 30.2894 30.7745C29.7969 29.9682 28.8544 29.2507 27.7506 29.2507C26.6468 29.2507 25.7042 29.9682 25.2117 30.7745C24.7179 31.5795 24.4792 32.5071 24.3129 33.4696C23.9754 35.3947 24.0004 37.5073 24.0004 38.7823C24.0004 39.5536 23.8542 40.0711 23.7267 40.2674C23.6004 40.4624 23.6004 40.5011 23.2191 40.5011C22.9691 40.5011 22.8779 40.4424 22.5941 40.0711C22.3103 39.6999 21.9691 39.0261 21.6953 38.1573C21.149 36.4197 20.7678 33.9871 20.1715 31.7895C19.6002 29.7244 18.5602 28.1956 17.7889 26.8293C17.0176 25.4618 16.5001 24.3242 16.5001 22.8029C16.5001 20.5528 17.2564 18.7802 18.5702 17.5302C19.884 16.2801 21.7878 15.5001 24.3517 15.5001Z" fill="#0071BC"/>
</svg>
