<svg width="172" height="67" viewBox="0 0 172 67" fill="none" xmlns="http://www.w3.org/2000/svg">
<rect x="1" y="1" width="170" height="65" rx="9" fill="white"/>
<path d="M42.8229 27.436L38.2149 40H35.1549L30.5469 27.436H33.2469L36.7029 37.426L40.1409 27.436H42.8229ZM45.6118 28.84C45.1678 28.84 44.7958 28.702 44.4958 28.426C44.2078 28.138 44.0638 27.784 44.0638 27.364C44.0638 26.944 44.2078 26.596 44.4958 26.32C44.7958 26.032 45.1678 25.888 45.6118 25.888C46.0558 25.888 46.4218 26.032 46.7098 26.32C47.0098 26.596 47.1598 26.944 47.1598 27.364C47.1598 27.784 47.0098 28.138 46.7098 28.426C46.4218 28.702 46.0558 28.84 45.6118 28.84ZM46.8538 30.028V40H44.3338V30.028H46.8538ZM58.6136 34.798C58.6136 35.158 58.5896 35.482 58.5416 35.77H51.2516C51.3116 36.49 51.5636 37.054 52.0076 37.462C52.4516 37.87 52.9976 38.074 53.6456 38.074C54.5816 38.074 55.2476 37.672 55.6436 36.868H58.3616C58.0736 37.828 57.5216 38.62 56.7056 39.244C55.8896 39.856 54.8876 40.162 53.6996 40.162C52.7396 40.162 51.8756 39.952 51.1076 39.532C50.3516 39.1 49.7576 38.494 49.3256 37.714C48.9056 36.934 48.6956 36.034 48.6956 35.014C48.6956 33.982 48.9056 33.076 49.3256 32.296C49.7456 31.516 50.3336 30.916 51.0896 30.496C51.8456 30.076 52.7156 29.866 53.6996 29.866C54.6476 29.866 55.4936 30.07 56.2376 30.478C56.9936 30.886 57.5756 31.468 57.9836 32.224C58.4036 32.968 58.6136 33.826 58.6136 34.798ZM56.0036 34.078C55.9916 33.43 55.7576 32.914 55.3016 32.53C54.8456 32.134 54.2876 31.936 53.6276 31.936C53.0036 31.936 52.4756 32.128 52.0436 32.512C51.6236 32.884 51.3656 33.406 51.2696 34.078H56.0036ZM74.2769 30.028L71.3609 40H68.6429L66.8249 33.034L65.0069 40H62.2709L59.3369 30.028H61.8929L63.6569 37.624L65.5649 30.028H68.2289L70.1009 37.606L71.8649 30.028H74.2769ZM84.3215 27.436C85.6415 27.436 86.7995 27.694 87.7955 28.21C88.8035 28.726 89.5775 29.464 90.1175 30.424C90.6695 31.372 90.9455 32.476 90.9455 33.736C90.9455 34.996 90.6695 36.1 90.1175 37.048C89.5775 37.984 88.8035 38.71 87.7955 39.226C86.7995 39.742 85.6415 40 84.3215 40H79.9295V27.436H84.3215ZM84.2315 37.858C85.5515 37.858 86.5715 37.498 87.2915 36.778C88.0115 36.058 88.3715 35.044 88.3715 33.736C88.3715 32.428 88.0115 31.408 87.2915 30.676C86.5715 29.932 85.5515 29.56 84.2315 29.56H82.4495V37.858H84.2315ZM102.102 34.798C102.102 35.158 102.078 35.482 102.03 35.77H94.7398C94.7998 36.49 95.0518 37.054 95.4958 37.462C95.9398 37.87 96.4858 38.074 97.1338 38.074C98.0698 38.074 98.7358 37.672 99.1318 36.868H101.85C101.562 37.828 101.01 38.62 100.194 39.244C99.3778 39.856 98.3758 40.162 97.1878 40.162C96.2278 40.162 95.3638 39.952 94.5958 39.532C93.8398 39.1 93.2458 38.494 92.8138 37.714C92.3938 36.934 92.1838 36.034 92.1838 35.014C92.1838 33.982 92.3938 33.076 92.8138 32.296C93.2338 31.516 93.8218 30.916 94.5778 30.496C95.3338 30.076 96.2038 29.866 97.1878 29.866C98.1358 29.866 98.9818 30.07 99.7258 30.478C100.482 30.886 101.064 31.468 101.472 32.224C101.892 32.968 102.102 33.826 102.102 34.798ZM99.4918 34.078C99.4798 33.43 99.2458 32.914 98.7898 32.53C98.3338 32.134 97.7758 31.936 97.1158 31.936C96.4918 31.936 95.9638 32.128 95.5318 32.512C95.1118 32.884 94.8538 33.406 94.7578 34.078H99.4918ZM106.875 32.098V36.922C106.875 37.258 106.953 37.504 107.109 37.66C107.277 37.804 107.553 37.876 107.937 37.876H109.107V40H107.523C105.399 40 104.337 38.968 104.337 36.904V32.098H103.149V30.028H104.337V27.562H106.875V30.028H109.107V32.098H106.875ZM110.272 34.978C110.272 33.97 110.47 33.076 110.866 32.296C111.274 31.516 111.82 30.916 112.504 30.496C113.2 30.076 113.974 29.866 114.826 29.866C115.57 29.866 116.218 30.016 116.77 30.316C117.334 30.616 117.784 30.994 118.12 31.45V30.028H120.658V40H118.12V38.542C117.796 39.01 117.346 39.4 116.77 39.712C116.206 40.012 115.552 40.162 114.808 40.162C113.968 40.162 113.2 39.946 112.504 39.514C111.82 39.082 111.274 38.476 110.866 37.696C110.47 36.904 110.272 35.998 110.272 34.978ZM118.12 35.014C118.12 34.402 118 33.88 117.76 33.448C117.52 33.004 117.196 32.668 116.788 32.44C116.38 32.2 115.942 32.08 115.474 32.08C115.006 32.08 114.574 32.194 114.178 32.422C113.782 32.65 113.458 32.986 113.206 33.43C112.966 33.862 112.846 34.378 112.846 34.978C112.846 35.578 112.966 36.106 113.206 36.562C113.458 37.006 113.782 37.348 114.178 37.588C114.586 37.828 115.018 37.948 115.474 37.948C115.942 37.948 116.38 37.834 116.788 37.606C117.196 37.366 117.52 37.03 117.76 36.598C118 36.154 118.12 35.626 118.12 35.014ZM124.397 28.84C123.953 28.84 123.581 28.702 123.281 28.426C122.993 28.138 122.849 27.784 122.849 27.364C122.849 26.944 122.993 26.596 123.281 26.32C123.581 26.032 123.953 25.888 124.397 25.888C124.841 25.888 125.207 26.032 125.495 26.32C125.795 26.596 125.945 26.944 125.945 27.364C125.945 27.784 125.795 28.138 125.495 28.426C125.207 28.702 124.841 28.84 124.397 28.84ZM125.639 30.028V40H123.119V30.028H125.639ZM130.649 26.68V40H128.129V26.68H130.649ZM136.954 40.162C136.138 40.162 135.406 40.018 134.758 39.73C134.11 39.43 133.594 39.028 133.21 38.524C132.838 38.02 132.634 37.462 132.598 36.85H135.136C135.184 37.234 135.37 37.552 135.694 37.804C136.03 38.056 136.444 38.182 136.936 38.182C137.416 38.182 137.788 38.086 138.052 37.894C138.328 37.702 138.466 37.456 138.466 37.156C138.466 36.832 138.298 36.592 137.962 36.436C137.638 36.268 137.116 36.088 136.396 35.896C135.652 35.716 135.04 35.53 134.56 35.338C134.092 35.146 133.684 34.852 133.336 34.456C133 34.06 132.832 33.526 132.832 32.854C132.832 32.302 132.988 31.798 133.3 31.342C133.624 30.886 134.08 30.526 134.668 30.262C135.268 29.998 135.97 29.866 136.774 29.866C137.962 29.866 138.91 30.166 139.618 30.766C140.326 31.354 140.716 32.152 140.788 33.16H138.376C138.34 32.764 138.172 32.452 137.872 32.224C137.584 31.984 137.194 31.864 136.702 31.864C136.246 31.864 135.892 31.948 135.64 32.116C135.4 32.284 135.28 32.518 135.28 32.818C135.28 33.154 135.448 33.412 135.784 33.592C136.12 33.76 136.642 33.934 137.35 34.114C138.07 34.294 138.664 34.48 139.132 34.672C139.6 34.864 140.002 35.164 140.338 35.572C140.686 35.968 140.866 36.496 140.878 37.156C140.878 37.732 140.716 38.248 140.392 38.704C140.08 39.16 139.624 39.52 139.024 39.784C138.436 40.036 137.746 40.162 136.954 40.162Z" fill="#0071BC"/>
<rect x="1" y="1" width="170" height="65" rx="9" stroke="#0071BC" stroke-width="2"/>
</svg>
