<svg width="22" height="23" viewBox="0 0 22 23" fill="none" xmlns="http://www.w3.org/2000/svg">
<path fill-rule="evenodd" clip-rule="evenodd" d="M2.35714 7.57143V2.85714H7.07143V7.57143H2.35714ZM0 2.07143C0 1.65466 0.165561 1.25496 0.460261 0.960261C0.754961 0.665561 1.15466 0.5 1.57143 0.5H7.85714C8.27391 0.5 8.67361 0.665561 8.96831 0.960261C9.26301 1.25496 9.42857 1.65466 9.42857 2.07143V8.35714C9.42857 8.77391 9.26301 9.17361 8.96831 9.46831C8.67361 9.76301 8.27391 9.92857 7.85714 9.92857H1.57143C1.15466 9.92857 0.754961 9.76301 0.460261 9.46831C0.165561 9.17361 0 8.77391 0 8.35714V2.07143ZM12.5714 2.46429C12.5714 2.15171 12.6956 1.85193 12.9166 1.63091C13.1376 1.40988 13.4374 1.28571 13.75 1.28571H20.8214C21.134 1.28571 21.4338 1.40988 21.6548 1.63091C21.8758 1.85193 22 2.15171 22 2.46429C22 2.77686 21.8758 3.07664 21.6548 3.29766C21.4338 3.51869 21.134 3.64286 20.8214 3.64286H13.75C13.4374 3.64286 13.1376 3.51869 12.9166 3.29766C12.6956 3.07664 12.5714 2.77686 12.5714 2.46429ZM13.75 6.78571C13.4374 6.78571 13.1376 6.90988 12.9166 7.13091C12.6956 7.35193 12.5714 7.65171 12.5714 7.96429C12.5714 8.27686 12.6956 8.57664 12.9166 8.79766C13.1376 9.01869 13.4374 9.14286 13.75 9.14286H20.8214C21.134 9.14286 21.4338 9.01869 21.6548 8.79766C21.8758 8.57664 22 8.27686 22 7.96429C22 7.65171 21.8758 7.35193 21.6548 7.13091C21.4338 6.90988 21.134 6.78571 20.8214 6.78571H13.75ZM2.35714 15.4286V20.1429H7.07143V15.4286H2.35714ZM1.57143 13.0714C1.15466 13.0714 0.754961 13.237 0.460261 13.5317C0.165561 13.8264 0 14.2261 0 14.6429V20.9286C0 21.3453 0.165561 21.745 0.460261 22.0397C0.754961 22.3344 1.15466 22.5 1.57143 22.5H7.85714C8.27391 22.5 8.67361 22.3344 8.96831 22.0397C9.26301 21.745 9.42857 21.3453 9.42857 20.9286V14.6429C9.42857 14.2261 9.26301 13.8264 8.96831 13.5317C8.67361 13.237 8.27391 13.0714 7.85714 13.0714H1.57143ZM13.75 13.8571C13.4374 13.8571 13.1376 13.9813 12.9166 14.2023C12.6956 14.4234 12.5714 14.7231 12.5714 15.0357C12.5714 15.3483 12.6956 15.6481 12.9166 15.8691C13.1376 16.0901 13.4374 16.2143 13.75 16.2143H20.8214C21.134 16.2143 21.4338 16.0901 21.6548 15.8691C21.8758 15.6481 22 15.3483 22 15.0357C22 14.7231 21.8758 14.4234 21.6548 14.2023C21.4338 13.9813 21.134 13.8571 20.8214 13.8571H13.75ZM13.75 19.3571C13.4374 19.3571 13.1376 19.4813 12.9166 19.7023C12.6956 19.9234 12.5714 20.2231 12.5714 20.5357C12.5714 20.8483 12.6956 21.1481 12.9166 21.3691C13.1376 21.5901 13.4374 21.7143 13.75 21.7143H20.8214C21.134 21.7143 21.4338 21.5901 21.6548 21.3691C21.8758 21.1481 22 20.8483 22 20.5357C22 20.2231 21.8758 19.9234 21.6548 19.7023C21.4338 19.4813 21.134 19.3571 20.8214 19.3571H13.75Z" fill="#00395E"/>
</svg>
