<svg width="21" height="21" viewBox="0 0 21 21" fill="none" xmlns="http://www.w3.org/2000/svg">
<path d="M17.5 1.5V5.5M17.5 19.5V9.5M10.5 1.5V13.5M10.5 19.5V17.5M3.5 1.5V3.5M3.5 19.5V7.5" stroke="#00395E" stroke-width="2" stroke-linecap="round"/>
<path d="M15.5 7.5C15.5 8.60457 16.3954 9.5 17.5 9.5C18.6046 9.5 19.5 8.60457 19.5 7.5C19.5 6.39543 18.6046 5.5 17.5 5.5C16.3954 5.5 15.5 6.39543 15.5 7.5Z" stroke="#00395E" stroke-width="2" stroke-linecap="round"/>
<path d="M8.5 15.5C8.5 16.6046 9.39543 17.5 10.5 17.5C11.6046 17.5 12.5 16.6046 12.5 15.5C12.5 14.3954 11.6046 13.5 10.5 13.5C9.39543 13.5 8.5 14.3954 8.5 15.5Z" stroke="#00395E" stroke-width="2" stroke-linecap="round"/>
<path d="M1.5 5.5C1.5 6.60457 2.39543 7.5 3.5 7.5C4.60457 7.5 5.5 6.60457 5.5 5.5C5.5 4.39543 4.60457 3.5 3.5 3.5C2.39543 3.5 1.5 4.39543 1.5 5.5Z" stroke="#00395E" stroke-width="2" stroke-linecap="round"/>
</svg>
