<svg width="30" height="30" viewBox="0 0 30 30" fill="none" xmlns="http://www.w3.org/2000/svg">
<path d="M15 0C6.71652 0 0 6.57361 0 14.6809C0 22.7881 6.71652 29.3617 15 29.3617C23.2835 29.3617 30 22.7881 30 14.6809C30 6.57361 23.2835 0 15 0ZM15 26.8712C8.12277 26.8712 2.54464 21.4118 2.54464 14.6809C2.54464 7.94994 8.12277 2.4905 15 2.4905C21.8772 2.4905 27.4554 7.94994 27.4554 14.6809C27.4554 21.4118 21.8772 26.8712 15 26.8712Z" fill="#00395E"/>
<path d="M20.8495 18.8294L16.0749 15.4509V7.34034C16.0749 7.19616 15.9544 7.07819 15.8071 7.07819H14.1966C14.0492 7.07819 13.9287 7.19616 13.9287 7.34034V16.3651C13.9287 16.4503 13.9689 16.529 14.0392 16.5781L19.5771 20.5302C19.6977 20.6154 19.8651 20.5892 19.9521 20.4745L20.9097 19.1964C20.9968 19.0752 20.97 18.9113 20.8495 18.8294Z" fill="#00395E"/>
</svg>
