<svg width="22" height="23" viewBox="0 0 22 23" fill="none" xmlns="http://www.w3.org/2000/svg">
<path d="M4.235 17.11C5.17 16.395 6.215 15.8311 7.37 15.4182C8.525 15.0061 9.735 14.8 11 14.8C12.265 14.8 13.475 15.0061 14.63 15.4182C15.785 15.8311 16.83 16.395 17.765 17.11C18.4067 16.3583 18.9064 15.5058 19.2643 14.5525C19.6214 13.5992 19.8 12.5817 19.8 11.5C19.8 9.06167 18.9431 6.98523 17.2293 5.2707C15.5148 3.5569 13.4383 2.7 11 2.7C8.56167 2.7 6.4856 3.5569 4.7718 5.2707C3.05727 6.98523 2.2 9.06167 2.2 11.5C2.2 12.5817 2.37893 13.5992 2.7368 14.5525C3.09393 15.5058 3.59333 16.3583 4.235 17.11ZM11 12.6C9.91833 12.6 9.00607 12.2289 8.2632 11.4868C7.52107 10.7439 7.15 9.83167 7.15 8.75C7.15 7.66833 7.52107 6.75607 8.2632 6.0132C9.00607 5.27107 9.91833 4.9 11 4.9C12.0817 4.9 12.9939 5.27107 13.7368 6.0132C14.4789 6.75607 14.85 7.66833 14.85 8.75C14.85 9.83167 14.4789 10.7439 13.7368 11.4868C12.9939 12.2289 12.0817 12.6 11 12.6ZM11 22.5C9.47833 22.5 8.04833 22.2111 6.71 21.6332C5.37167 21.0561 4.2075 20.2725 3.2175 19.2825C2.2275 18.2925 1.44393 17.1283 0.8668 15.79C0.288933 14.4517 0 13.0217 0 11.5C0 9.97833 0.288933 8.54833 0.8668 7.21C1.44393 5.87167 2.2275 4.7075 3.2175 3.7175C4.2075 2.7275 5.37167 1.94357 6.71 1.3657C8.04833 0.788567 9.47833 0.5 11 0.5C12.5217 0.5 13.9517 0.788567 15.29 1.3657C16.6283 1.94357 17.7925 2.7275 18.7825 3.7175C19.7725 4.7075 20.5561 5.87167 21.1332 7.21C21.7111 8.54833 22 9.97833 22 11.5C22 13.0217 21.7111 14.4517 21.1332 15.79C20.5561 17.1283 19.7725 18.2925 18.7825 19.2825C17.7925 20.2725 16.6283 21.0561 15.29 21.6332C13.9517 22.2111 12.5217 22.5 11 22.5ZM11 20.3C11.9717 20.3 12.8883 20.1581 13.75 19.8743C14.6117 19.5898 15.4 19.1817 16.115 18.65C15.4 18.1183 14.6117 17.7102 13.75 17.4257C12.8883 17.1419 11.9717 17 11 17C10.0283 17 9.11167 17.1419 8.25 17.4257C7.38833 17.7102 6.6 18.1183 5.885 18.65C6.6 19.1817 7.38833 19.5898 8.25 19.8743C9.11167 20.1581 10.0283 20.3 11 20.3ZM11 10.4C11.4767 10.4 11.8708 10.2442 12.1825 9.9325C12.4942 9.62083 12.65 9.22667 12.65 8.75C12.65 8.27333 12.4942 7.87917 12.1825 7.5675C11.8708 7.25583 11.4767 7.1 11 7.1C10.5233 7.1 10.1292 7.25583 9.8175 7.5675C9.50583 7.87917 9.35 8.27333 9.35 8.75C9.35 9.22667 9.50583 9.62083 9.8175 9.9325C10.1292 10.2442 10.5233 10.4 11 10.4Z" fill="#00395E"/>
</svg>
