<svg width="52" height="48" viewBox="0 0 52 48" fill="none" xmlns="http://www.w3.org/2000/svg">
<path d="M20 0C16.71 0 14 2.71 14 6V10H18V6C18 4.874 18.874 4 20 4H32C33.126 4 34 4.874 34 6V10H38V6C38 2.71 35.29 0 32 0H20ZM6 12C4.4087 12 2.88258 12.6321 1.75736 13.7574C0.632141 14.8826 0 16.4087 0 18L0 42C0 43.5913 0.632141 45.1174 1.75736 46.2426C2.88258 47.3679 4.4087 48 6 48H46C49.312 48 52 45.312 52 42V18C52 16.4087 51.3679 14.8826 50.2426 13.7574C49.1174 12.6321 47.5913 12 46 12H6ZM26 17.812C27.6009 17.8107 29.1864 18.125 30.6657 18.7371C32.145 19.3491 33.4891 20.2468 34.6212 21.3788C35.7532 22.5109 36.6509 23.855 37.2629 25.3343C37.875 26.8136 38.1893 28.3991 38.188 30C38.1893 31.6009 37.875 33.1864 37.2629 34.6657C36.6509 36.145 35.7532 37.4891 34.6212 38.6212C33.4891 39.7532 32.145 40.6509 30.6657 41.2629C29.1864 41.875 27.6009 42.1893 26 42.188C24.3991 42.1893 22.8136 41.875 21.3343 41.2629C19.855 40.6509 18.5109 39.7532 17.3788 38.6212C16.2468 37.4891 15.3491 36.145 14.7371 34.6657C14.125 33.1864 13.8107 31.6009 13.812 30C13.8107 28.3991 14.125 26.8136 14.7371 25.3343C15.3491 23.855 16.2468 22.5109 17.3788 21.3788C18.5109 20.2468 19.855 19.3491 21.3343 18.7371C22.8136 18.125 24.3991 17.8107 26 17.812ZM24 24V28H20V32H24V36H28V32H32V28H28V24H24Z" fill="#00395E"/>
</svg>
