<svg width="23" height="25" viewBox="0 0 23 25" fill="none" xmlns="http://www.w3.org/2000/svg">
<path fill-rule="evenodd" clip-rule="evenodd" d="M6.80343 3.41832L6.83857 3.26499C6.90565 2.98005 7.01554 2.56093 7.24234 2.14821C7.47362 1.72782 7.83204 1.30168 8.39426 1.02121C8.95457 0.742018 9.65671 0.637879 10.525 0.752879C11.4833 0.880657 13.4083 1.19755 15.109 2.0626C16.8193 2.93277 18.4216 4.42968 18.4216 6.92263C18.4216 8.21063 17.9233 9.59255 17.4403 10.4934C17.2084 10.9265 16.933 11.3405 16.657 11.5635C16.5938 11.6146 16.5037 11.6785 16.3919 11.7232C16.0852 12.7311 15.4747 13.6197 14.6439 14.2675C13.813 14.9152 12.8024 15.2905 11.7501 15.3421C10.6979 15.3937 9.65538 15.1191 8.76515 14.5557C7.87492 13.9924 7.18042 13.1678 6.77659 12.1947L6.76126 12.1973L6.53446 11.9219L7.02768 11.5156L6.53446 11.9219L6.53382 11.9207L6.53254 11.9194L6.52934 11.9149L6.51848 11.9021C6.46381 11.8341 6.41118 11.7644 6.36068 11.6932C6.22272 11.5019 6.0927 11.3049 5.97095 11.1029C5.67068 10.6058 5.30843 9.89793 5.07651 9.07185C4.84523 8.24577 4.73918 7.27721 4.98196 6.27799C5.21834 5.3056 5.77609 4.34855 6.78618 3.49371L6.80343 3.41832ZM7.87676 11.4926C8.15385 12.2894 8.68595 12.9727 9.39065 13.4365C10.0954 13.9004 10.9333 14.1189 11.7748 14.0583C12.6163 13.9977 13.4143 13.6613 14.0452 13.1012C14.6762 12.5412 15.1048 11.7887 15.2649 10.9604L15.3371 10.9847C15.3345 10.9485 15.3332 10.9123 15.3332 10.8761C15.3332 9.81871 15.1863 9.0808 15.0496 8.6208C15.0229 8.53126 14.9933 8.44262 14.9608 8.35502L14.9346 8.3563H14.909C14.4313 8.36661 13.9537 8.33024 13.483 8.24768C12.386 8.06241 10.9006 7.59985 9.15134 6.52844C9.11301 6.61405 9.07468 6.71052 9.03634 6.81785C8.91112 7.17244 8.80826 7.59346 8.71946 8.03813C8.64087 8.42977 8.57634 8.82396 8.51501 9.19324L8.49137 9.33891C8.42557 9.73502 8.35976 10.1241 8.28309 10.4059C8.14893 10.8952 8.01221 11.2428 7.87676 11.492V11.4926ZM6.98232 10.3024C6.69375 9.80702 6.46716 9.2781 6.30765 8.72749C6.11662 8.04643 6.04634 7.30916 6.22395 6.58018C6.39645 5.87102 6.81365 5.12543 7.67168 4.41882C7.82629 4.31405 7.89657 4.17349 7.91573 4.1358V4.13516C7.94928 4.06608 7.97623 3.99399 7.99623 3.91985C8.01668 3.84702 8.03904 3.74735 8.06012 3.65791L8.08248 3.5576C8.14318 3.30013 8.22176 3.01966 8.36232 2.76346C8.49904 2.51557 8.68623 2.30346 8.96479 2.16482C9.24462 2.02491 9.67779 1.92907 10.3563 2.0198C11.2846 2.1431 13.0307 2.43891 14.5295 3.20174C16.0181 3.95882 17.1438 5.10499 17.1438 6.92263C17.1438 7.75957 16.8627 8.71152 16.5241 9.46221C16.4602 8.97282 16.3682 8.57288 16.2737 8.25599C16.2078 8.02951 16.1256 7.80809 16.0277 7.59346C15.9908 7.51392 15.9503 7.43611 15.9063 7.36027L15.8955 7.34302L15.8916 7.33663L15.8897 7.33344L15.8884 7.33152L15.3518 7.67652L15.8884 7.33152L15.652 6.9648L15.2291 7.04977L15.2201 7.05168L15.1582 7.05999C15.0631 7.07058 14.9676 7.07698 14.872 7.07916C14.478 7.08677 14.0843 7.05596 13.6964 6.98716C12.6659 6.81338 11.1517 6.33996 9.31234 5.11521L8.86512 4.81685L8.49521 5.20657C8.19046 5.5273 7.98346 5.96493 7.83204 6.39107C7.67743 6.82871 7.56051 7.31746 7.46659 7.78641C7.38873 8.18548 7.31802 8.58591 7.25448 8.98752L7.2302 9.13063C7.16184 9.54655 7.10626 9.86407 7.05004 10.0698C7.02906 10.1478 7.00648 10.2253 6.98232 10.3024ZM15.8507 10.572L15.8533 10.5707L15.8507 10.572ZM15.8533 10.5707L15.8507 10.572L15.8526 10.5707H15.8533Z" fill="#00395E"/>
<path fill-rule="evenodd" clip-rule="evenodd" d="M7.61172 15.8952C7.47628 15.6256 7.30953 15.2927 7.02778 15.3572C3.57522 16.1431 0 18.4118 0 20.8242V24.2934H23V20.8242C23 18.9242 20.7818 17.1129 18.1527 16.0453L18.1496 16.0389C18.1466 16.0332 18.1437 16.0274 18.1406 16.0217L18.1195 16.0319C17.4212 15.7508 16.6942 15.5208 15.9722 15.3572C15.6509 15.2838 15.3186 15.7259 15.1736 16.0025H7.66667C7.64878 15.9693 7.63089 15.9322 7.61172 15.8952ZM16.2297 16.7385C16.5089 16.8158 16.7868 16.9027 17.0609 16.9986C17.0686 17.2171 17.0519 17.4752 17.0162 17.7384C16.9797 18.0109 16.9216 18.2801 16.8424 18.5434H15.9722C15.8536 18.5434 15.7373 18.5765 15.6365 18.6389C15.5356 18.7013 15.4541 18.7906 15.4011 18.8967L14.7622 20.1745C14.7177 20.2631 14.6946 20.3609 14.6944 20.4601V21.7378C14.6944 21.9073 14.7618 22.0698 14.8816 22.1896C15.0014 22.3094 15.1639 22.3767 15.3333 22.3767H16.6111V21.0989H15.9722V20.6108L16.3671 19.8212H18.1329L18.5278 20.6108V21.0989H17.8889V22.3767H19.1667C19.3361 22.3767 19.4986 22.3094 19.6184 22.1896C19.7382 22.0698 19.8056 21.9073 19.8056 21.7378V20.4601C19.8055 20.3609 19.7823 20.2631 19.7378 20.1745L19.0989 18.8967C19.0459 18.7906 18.9644 18.7013 18.8635 18.6389C18.7627 18.5765 18.6464 18.5434 18.5278 18.5434H18.1662C18.2451 18.2053 18.2981 17.8616 18.3246 17.5154C18.9475 17.8099 19.5264 18.1479 20.0279 18.5134C21.2558 19.4091 21.7222 20.2473 21.7222 20.8242V23.0156H1.27778V20.8242C1.27778 20.2473 1.74417 19.4091 2.97211 18.5134C3.58928 18.0629 4.32592 17.6553 5.11558 17.318C5.13752 17.8271 5.21922 18.3319 5.359 18.8219L5.36411 18.8398C4.98216 19.0815 4.69789 19.4503 4.5615 19.8812C4.42511 20.3121 4.44538 20.7773 4.61873 21.1947C4.79209 21.6121 5.10737 21.9548 5.50889 22.1623C5.91041 22.3698 6.37234 22.4287 6.81309 22.3287C7.25384 22.2287 7.64506 21.9761 7.91765 21.6156C8.19024 21.255 8.32666 20.8098 8.30281 20.3585C8.27897 19.9071 8.09639 19.4787 7.78733 19.1489C7.47828 18.8192 7.06262 18.6092 6.61378 18.5562C6.53214 18.2889 6.47232 18.0154 6.43489 17.7384C6.39932 17.4907 6.38457 17.2404 6.39081 16.9902C6.39266 16.9425 6.39585 16.8947 6.40039 16.8471C6.47706 16.8235 6.55372 16.8005 6.63039 16.7788L6.89553 17.2809H15.9448L16.2297 16.7392V16.7385ZM6.38889 21.1092C6.73261 21.1092 7.02778 20.8281 7.02778 20.4607C7.02778 20.094 6.73261 19.8122 6.38889 19.8122C6.04517 19.8122 5.75 20.0933 5.75 20.4607C5.75 20.8274 6.04517 21.1092 6.38889 21.1092Z" fill="#00395E"/>
</svg>
