<svg width="152" height="51" viewBox="0 0 152 51" fill="none" xmlns="http://www.w3.org/2000/svg">
<path d="M46 31.5H50V29.5H46V31.5ZM39 19.5V21.5H57V19.5H39ZM42 26.5H54V24.5H42V26.5Z" fill="#89898B"/>
<path d="M80.712 19.49V21.164H75.402V24.854H79.542V26.528H75.402V32H73.35V19.49H80.712ZM83.6577 20.768C83.2857 20.768 82.9737 20.642 82.7217 20.39C82.4697 20.138 82.3437 19.826 82.3437 19.454C82.3437 19.082 82.4697 18.77 82.7217 18.518C82.9737 18.266 83.2857 18.14 83.6577 18.14C84.0177 18.14 84.3237 18.266 84.5757 18.518C84.8277 18.77 84.9537 19.082 84.9537 19.454C84.9537 19.826 84.8277 20.138 84.5757 20.39C84.3237 20.642 84.0177 20.768 83.6577 20.768ZM84.6657 22.082V32H82.6137V22.082H84.6657ZM89.4118 18.68V32H87.3598V18.68H89.4118ZM94.4999 23.756V29.246C94.4999 29.618 94.5839 29.888 94.7519 30.056C94.9319 30.212 95.2319 30.29 95.6519 30.29H96.9119V32H95.2919C94.3679 32 93.6599 31.784 93.1679 31.352C92.6759 30.92 92.4299 30.218 92.4299 29.246V23.756H91.2599V22.082H92.4299V19.616H94.4999V22.082H96.9119V23.756H94.4999ZM107.893 26.798C107.893 27.17 107.869 27.506 107.821 27.806H100.243C100.303 28.598 100.597 29.234 101.125 29.714C101.653 30.194 102.301 30.434 103.069 30.434C104.173 30.434 104.953 29.972 105.409 29.048H107.623C107.323 29.96 106.777 30.71 105.985 31.298C105.205 31.874 104.233 32.162 103.069 32.162C102.121 32.162 101.269 31.952 100.513 31.532C99.7691 31.1 99.1811 30.5 98.7491 29.732C98.3291 28.952 98.1191 28.052 98.1191 27.032C98.1191 26.012 98.3231 25.118 98.7311 24.35C99.1511 23.57 99.7331 22.97 100.477 22.55C101.233 22.13 102.097 21.92 103.069 21.92C104.005 21.92 104.839 22.124 105.571 22.532C106.303 22.94 106.873 23.516 107.281 24.26C107.689 24.992 107.893 25.838 107.893 26.798ZM105.751 26.15C105.739 25.394 105.469 24.788 104.941 24.332C104.413 23.876 103.759 23.648 102.979 23.648C102.271 23.648 101.665 23.876 101.161 24.332C100.657 24.776 100.357 25.382 100.261 26.15H105.751ZM111.965 23.522C112.265 23.018 112.661 22.628 113.153 22.352C113.657 22.064 114.251 21.92 114.935 21.92V24.044H114.413C113.609 24.044 112.997 24.248 112.577 24.656C112.169 25.064 111.965 25.772 111.965 26.78V32H109.913V22.082H111.965V23.522Z" fill="#89898B"/>
<rect x="0.5" y="0.5" width="151" height="50" rx="11.5" stroke="#89898B"/>
</svg>
