<svg width="94" height="115" viewBox="0 0 94 115" fill="none" xmlns="http://www.w3.org/2000/svg">
<path d="M38.9231 0.939209C34.4942 0.939209 30.8462 4.20183 30.8462 8.16274V12.9784H36.2308V8.16274C36.2308 6.80712 37.4073 5.75489 38.9231 5.75489H55.0769C56.5927 5.75489 57.7692 6.80712 57.7692 8.16274V12.9784H63.1538V8.16274C63.1538 4.20183 59.5058 0.939209 55.0769 0.939209H38.9231ZM20.0769 15.3863C17.9348 15.3863 15.8804 16.1473 14.3657 17.502C12.851 18.8567 12 20.694 12 22.6098L12 51.5039C12 53.4197 12.851 55.257 14.3657 56.6117C15.8804 57.9664 17.9348 58.7274 20.0769 58.7274H73.9231C78.3815 58.7274 82 55.4913 82 51.5039V22.6098C82 20.694 81.149 18.8567 79.6343 17.502C78.1196 16.1473 76.0652 15.3863 73.9231 15.3863H20.0769ZM47 22.3835C49.1551 22.3819 51.2894 22.7603 53.2808 23.4972C55.2721 24.234 57.0815 25.3148 58.6054 26.6777C60.1293 28.0405 61.3377 29.6587 62.1616 31.4397C62.9855 33.2207 63.4087 35.1295 63.4069 37.0568C63.4087 38.9842 62.9855 40.893 62.1616 42.674C61.3377 44.455 60.1293 46.0732 58.6054 47.436C57.0815 48.7989 55.2721 49.8797 53.2808 50.6165C51.2894 51.3534 49.1551 51.7318 47 51.7302C44.8449 51.7318 42.7106 51.3534 40.7192 50.6165C38.7279 49.8797 36.9185 48.7989 35.3946 47.436C33.8707 46.0732 32.6623 44.455 31.8384 42.674C31.0145 40.893 30.5913 38.9842 30.5931 37.0568C30.5913 35.1295 31.0145 33.2207 31.8384 31.4397C32.6623 29.6587 33.8707 28.0405 35.3946 26.6777C36.9185 25.3148 38.7279 24.234 40.7192 23.4972C42.7106 22.7603 44.8449 22.3819 47 22.3835ZM44.3077 29.8333V34.649H38.9231V39.4647H44.3077V44.2804H49.6923V39.4647H55.0769V34.649H49.6923V29.8333H44.3077Z" fill="#00395E"/>
<path d="M0.84 96.6C0.84 94.952 1.208 93.48 1.944 92.184C2.696 90.872 3.712 89.856 4.992 89.136C6.288 88.4 7.736 88.032 9.336 88.032C11.208 88.032 12.848 88.512 14.256 89.472C15.664 90.432 16.648 91.76 17.208 93.456H13.344C12.96 92.656 12.416 92.056 11.712 91.656C11.024 91.256 10.224 91.056 9.312 91.056C8.336 91.056 7.464 91.288 6.696 91.752C5.944 92.2 5.352 92.84 4.92 93.672C4.504 94.504 4.296 95.48 4.296 96.6C4.296 97.704 4.504 98.68 4.92 99.528C5.352 100.36 5.944 101.008 6.696 101.472C7.464 101.92 8.336 102.144 9.312 102.144C10.224 102.144 11.024 101.944 11.712 101.544C12.416 101.128 12.96 100.52 13.344 99.72H17.208C16.648 101.432 15.664 102.768 14.256 103.728C12.864 104.672 11.224 105.144 9.336 105.144C7.736 105.144 6.288 104.784 4.992 104.064C3.712 103.328 2.696 102.312 1.944 101.016C1.208 99.72 0.84 98.248 0.84 96.6ZM23.4379 87.24V105H20.0779V87.24H23.4379ZM39.1176 98.064C39.1176 98.544 39.0856 98.976 39.0216 99.36H29.3016C29.3816 100.32 29.7176 101.072 30.3096 101.616C30.9016 102.16 31.6296 102.432 32.4936 102.432C33.7416 102.432 34.6296 101.896 35.1576 100.824H38.7816C38.3976 102.104 37.6616 103.16 36.5736 103.992C35.4856 104.808 34.1496 105.216 32.5656 105.216C31.2856 105.216 30.1336 104.936 29.1096 104.376C28.1016 103.8 27.3096 102.992 26.7336 101.952C26.1736 100.912 25.8936 99.712 25.8936 98.352C25.8936 96.976 26.1736 95.768 26.7336 94.728C27.2936 93.688 28.0776 92.888 29.0856 92.328C30.0936 91.768 31.2536 91.488 32.5656 91.488C33.8296 91.488 34.9576 91.76 35.9496 92.304C36.9576 92.848 37.7336 93.624 38.2776 94.632C38.8376 95.624 39.1176 96.768 39.1176 98.064ZM35.6376 97.104C35.6216 96.24 35.3096 95.552 34.7016 95.04C34.0936 94.512 33.3496 94.248 32.4696 94.248C31.6376 94.248 30.9336 94.504 30.3576 95.016C29.7976 95.512 29.4536 96.208 29.3256 97.104H35.6376ZM40.7061 98.304C40.7061 96.96 40.9701 95.768 41.4981 94.728C42.0421 93.688 42.7701 92.888 43.6821 92.328C44.6101 91.768 45.6421 91.488 46.7781 91.488C47.7701 91.488 48.6341 91.688 49.3701 92.088C50.1221 92.488 50.7221 92.992 51.1701 93.6V91.704H54.5541V105H51.1701V103.056C50.7381 103.68 50.1381 104.2 49.3701 104.616C48.6181 105.016 47.7461 105.216 46.7541 105.216C45.6341 105.216 44.6101 104.928 43.6821 104.352C42.7701 103.776 42.0421 102.968 41.4981 101.928C40.9701 100.872 40.7061 99.664 40.7061 98.304ZM51.1701 98.352C51.1701 97.536 51.0101 96.84 50.6901 96.264C50.3701 95.672 49.9381 95.224 49.3941 94.92C48.8501 94.6 48.2661 94.44 47.6421 94.44C47.0181 94.44 46.4421 94.592 45.9141 94.896C45.3861 95.2 44.9541 95.648 44.6181 96.24C44.2981 96.816 44.1381 97.504 44.1381 98.304C44.1381 99.104 44.2981 99.808 44.6181 100.416C44.9541 101.008 45.3861 101.464 45.9141 101.784C46.4581 102.104 47.0341 102.264 47.6421 102.264C48.2661 102.264 48.8501 102.112 49.3941 101.808C49.9381 101.488 50.3701 101.04 50.6901 100.464C51.0101 99.872 51.1701 99.168 51.1701 98.352ZM65.2037 91.512C66.7877 91.512 68.0677 92.016 69.0437 93.024C70.0197 94.016 70.5077 95.408 70.5077 97.2V105H67.1477V97.656C67.1477 96.6 66.8837 95.792 66.3557 95.232C65.8277 94.656 65.1077 94.368 64.1957 94.368C63.2677 94.368 62.5317 94.656 61.9877 95.232C61.4597 95.792 61.1957 96.6 61.1957 97.656V105H57.8357V91.704H61.1957V93.36C61.6437 92.784 62.2117 92.336 62.8997 92.016C63.6037 91.68 64.3717 91.512 65.2037 91.512ZM75.4069 90.12C74.8149 90.12 74.3189 89.936 73.9189 89.568C73.5349 89.184 73.3429 88.712 73.3429 88.152C73.3429 87.592 73.5349 87.128 73.9189 86.76C74.3189 86.376 74.8149 86.184 75.4069 86.184C75.9989 86.184 76.4869 86.376 76.8709 86.76C77.2709 87.128 77.4709 87.592 77.4709 88.152C77.4709 88.712 77.2709 89.184 76.8709 89.568C76.4869 89.936 75.9989 90.12 75.4069 90.12ZM77.0629 91.704V105H73.7029V91.704H77.0629ZM79.5186 98.352C79.5186 96.976 79.7986 95.776 80.3586 94.752C80.9186 93.712 81.6946 92.912 82.6866 92.352C83.6786 91.776 84.8146 91.488 86.0946 91.488C87.7426 91.488 89.1026 91.904 90.1746 92.736C91.2626 93.552 91.9906 94.704 92.3586 96.192H88.7346C88.5426 95.616 88.2146 95.168 87.7506 94.848C87.3026 94.512 86.7426 94.344 86.0706 94.344C85.1106 94.344 84.3506 94.696 83.7906 95.4C83.2306 96.088 82.9506 97.072 82.9506 98.352C82.9506 99.616 83.2306 100.6 83.7906 101.304C84.3506 101.992 85.1106 102.336 86.0706 102.336C87.4306 102.336 88.3186 101.728 88.7346 100.512H92.3586C91.9906 101.952 91.2626 103.096 90.1746 103.944C89.0866 104.792 87.7266 105.216 86.0946 105.216C84.8146 105.216 83.6786 104.936 82.6866 104.376C81.6946 103.8 80.9186 103 80.3586 101.976C79.7986 100.936 79.5186 99.728 79.5186 98.352Z" fill="#00395E"/>
</svg>
