<svg width="20" height="25" viewBox="0 0 20 25" fill="none" xmlns="http://www.w3.org/2000/svg">
<path d="M10 10.1C12.7625 10.1 15 7.952 15 5.3C15 2.648 12.7625 0.5 10 0.5C7.23755 0.5 5.00006 2.648 5.00006 5.3C5.00006 7.952 7.23755 10.1 10 10.1ZM10 2.9C11.375 2.9 12.5 3.98 12.5 5.3C12.5 6.62 11.375 7.7 10 7.7C8.62505 7.7 7.50005 6.62 7.50005 5.3C7.50005 3.98 8.62505 2.9 10 2.9ZM17.9875 13.172C15.8875 12.14 13.1625 11.3 10 11.3C6.83755 11.3 4.11257 12.14 2.01257 13.172C1.40265 13.4736 0.891704 13.9315 0.536454 14.495C0.181203 15.0584 -0.00445668 15.7054 8.12375e-05 16.364V24.5H2.50007V16.364C2.50007 15.908 2.75007 15.5 3.12507 15.308C4.63756 14.576 7.03755 13.7 10 13.7C10.95 13.7 11.8375 13.784 12.6625 13.94L10.725 17.9H7.18755C5.28756 17.9 3.75007 19.376 3.75007 21.2C3.75007 23.024 5.28756 24.5 7.18755 24.5H17.5C18.875 24.5 20 23.42 20 22.1V16.364C20 15.02 19.2375 13.784 17.9875 13.172ZM8.67505 22.1H7.18755C6.67505 22.1 6.25006 21.692 6.25006 21.2C6.25006 20.708 6.67505 20.3 7.18755 20.3H9.55004L8.67505 22.1ZM17.5 22.1H11.4375L15.1125 14.576C15.7875 14.816 16.375 15.068 16.875 15.308C17.25 15.5 17.5 15.908 17.5 16.364V22.1Z" fill="#00395E"/>
</svg>
