<svg width="28" height="36" viewBox="0 0 28 36" fill="none" xmlns="http://www.w3.org/2000/svg">
<path d="M27.125 31.125V10.3438L17.2812 0.5H5.25C4.08968 0.5 2.97688 0.960936 2.15641 1.78141C1.33594 2.60188 0.875 3.71468 0.875 4.875V31.125C0.875 32.2853 1.33594 33.3981 2.15641 34.2186C2.97688 35.0391 4.08968 35.5 5.25 35.5H22.75C23.9103 35.5 25.0231 35.0391 25.8436 34.2186C26.6641 33.3981 27.125 32.2853 27.125 31.125ZM17.2812 7.0625C17.2812 7.93274 17.627 8.76734 18.2423 9.38269C18.8577 9.99805 19.6923 10.3438 20.5625 10.3438H24.9375V31.125C24.9375 31.7052 24.707 32.2616 24.2968 32.6718C23.8866 33.082 23.3302 33.3125 22.75 33.3125H5.25C4.66984 33.3125 4.11344 33.082 3.7032 32.6718C3.29297 32.2616 3.0625 31.7052 3.0625 31.125V4.875C3.0625 4.29484 3.29297 3.73844 3.7032 3.3282C4.11344 2.91797 4.66984 2.6875 5.25 2.6875H17.2812V7.0625Z" fill="#B3261E"/>
<path d="M6.56879 31.3156C6.14243 31.1451 5.79893 30.8157 5.61067 30.3969C5.18411 29.5481 5.32629 28.6994 5.78567 27.9862C6.21879 27.3147 6.93629 26.7437 7.74786 26.2647C8.77585 25.6816 9.86249 25.2087 10.9897 24.8537C11.8651 23.28 12.641 21.653 13.3129 19.9822C12.9112 19.0695 12.5963 18.121 12.3722 17.1494C12.1841 16.2744 12.1119 15.4081 12.2716 14.6644C12.4357 13.89 12.871 13.1944 13.6935 12.8641C14.1135 12.6956 14.5685 12.6016 15.0104 12.6956C15.2326 12.7429 15.4416 12.8391 15.6221 12.9772C15.8025 13.1153 15.95 13.2919 16.0538 13.4941C16.2463 13.8528 16.3163 14.2728 16.3316 14.6709C16.3469 15.0822 16.3054 15.5372 16.2288 16.0141C16.045 17.1297 15.6382 18.4947 15.0913 19.9384C15.6948 21.2291 16.4122 22.4634 17.235 23.6266C18.2087 23.5497 19.188 23.5864 20.1532 23.7359C20.9494 23.8803 21.7588 24.1625 22.2532 24.7531C22.5157 25.0681 22.6754 25.4531 22.6907 25.8862C22.706 26.3062 22.5879 26.7219 22.3888 27.1178C22.2164 27.4847 21.949 27.7989 21.6144 28.0278C21.2837 28.2435 20.8932 28.3492 20.4988 28.3297C19.7747 28.2991 19.0682 27.9009 18.4579 27.4175C17.7157 26.8039 17.047 26.1065 16.465 25.3394C14.9858 25.5072 13.524 25.8044 12.0966 26.2275C11.4429 27.3868 10.6968 28.4914 9.86536 29.5306C9.22661 30.2962 8.53317 30.9656 7.83754 31.2522C7.43786 31.433 6.98452 31.4557 6.56879 31.3156ZM9.58535 27.1572C9.22223 27.3234 8.88535 27.4984 8.58129 27.6778C7.86379 28.1022 7.39786 28.5156 7.16598 28.8744C6.96036 29.1916 6.95598 29.4212 7.07848 29.6641C7.10036 29.7122 7.12223 29.7428 7.13536 29.7603C7.16145 29.7533 7.18704 29.7446 7.21192 29.7341C7.5116 29.6116 7.98848 29.22 8.60098 28.4828C8.94933 28.0563 9.2778 27.614 9.58535 27.1572ZM13.1729 24.2478C13.9033 24.0773 14.6404 23.9365 15.3822 23.8256C14.9839 23.2161 14.6117 22.5899 14.2666 21.9487C13.9235 22.7244 13.5588 23.4903 13.1729 24.2456V24.2478ZM18.5235 25.2322C18.8516 25.5887 19.171 25.8884 19.475 26.1291C20 26.5447 20.3654 26.6825 20.5644 26.6891C20.6177 26.696 20.6718 26.6844 20.7175 26.6562C20.8085 26.5844 20.8794 26.4902 20.9232 26.3828C21.0009 26.2496 21.0452 26.0994 21.0522 25.9453C21.051 25.8939 21.0307 25.8448 20.9954 25.8075C20.8816 25.6719 20.5579 25.475 19.8622 25.3503C19.4197 25.2763 18.9721 25.2375 18.5235 25.2344V25.2322ZM14.1704 17.5628C14.3545 16.9689 14.5006 16.364 14.6079 15.7516C14.6757 15.3403 14.7019 15.0012 14.691 14.7344C14.6916 14.5871 14.6679 14.4408 14.621 14.3012C14.5116 14.3148 14.4047 14.3443 14.3038 14.3887C14.1135 14.4653 13.9582 14.6206 13.875 15.0078C13.7875 15.4278 13.8094 16.0337 13.9757 16.8059C14.0282 17.0487 14.0938 17.3025 14.1725 17.5628H14.1704Z" fill="#B3261E"/>
</svg>
