<svg width="39" height="36" viewBox="0 0 39 36" fill="none" xmlns="http://www.w3.org/2000/svg">
<path d="M27.2921 10.2222V4.38889H11.7072V10.2222H7.81101V0.5H31.1884V10.2222H27.2921ZM3.91478 14.1111H35.0846H7.81101H3.91478ZM31.1884 18.9722C31.7403 18.9722 32.2027 18.7856 32.5754 18.4122C32.9495 18.0402 33.1365 17.5787 33.1365 17.0278C33.1365 16.4769 32.9495 16.0147 32.5754 15.6414C32.2027 15.2694 31.7403 15.0833 31.1884 15.0833C30.6364 15.0833 30.174 15.2694 29.8013 15.6414C29.4273 16.0147 29.2403 16.4769 29.2403 17.0278C29.2403 17.5787 29.4273 18.0402 29.8013 18.4122C30.174 18.7856 30.6364 18.9722 31.1884 18.9722ZM27.2921 31.6111V23.8333H11.7072V31.6111H27.2921ZM31.1884 35.5H7.81101V27.7222H0.0185547V16.0556C0.0185547 14.4028 0.586754 13.0177 1.72315 11.9003C2.85955 10.7816 4.23947 10.2222 5.86289 10.2222H33.1365C34.7924 10.2222 36.1807 10.7816 37.3015 11.9003C38.4211 13.0177 38.9808 14.4028 38.9808 16.0556V27.7222H31.1884V35.5ZM35.0846 23.8333V16.0556C35.0846 15.5046 34.8976 15.0425 34.5235 14.6692C34.1508 14.2971 33.6884 14.1111 33.1365 14.1111H5.86289C5.31093 14.1111 4.84793 14.2971 4.47389 14.6692C4.10115 15.0425 3.91478 15.5046 3.91478 16.0556V23.8333H7.81101V19.9444H31.1884V23.8333H35.0846Z" fill="#00395E"/>
</svg>
