<svg width="21" height="23" viewBox="0 0 21 23" fill="none" xmlns="http://www.w3.org/2000/svg">
<path d="M10.4999 7.18309C11.6448 7.18309 12.7428 7.63791 13.5524 8.44748C14.362 9.25705 14.8168 10.3551 14.8168 11.5C14.8168 12.6449 14.362 13.7429 13.5524 14.5525C12.7428 15.3621 11.6448 15.8169 10.4999 15.8169C9.35499 15.8169 8.25697 15.3621 7.4474 14.5525C6.63782 13.7429 6.18301 12.6449 6.18301 11.5C6.18301 10.3551 6.63782 9.25705 7.4474 8.44748C8.25697 7.63791 9.35499 7.18309 10.4999 7.18309ZM10.4999 9.34154C9.92744 9.34154 9.37843 9.56894 8.97365 9.97373C8.56886 10.3785 8.34145 10.9275 8.34145 11.5C8.34145 12.0724 8.56886 12.6214 8.97365 13.0262C9.37843 13.431 9.92744 13.6584 10.4999 13.6584C11.0724 13.6584 11.6214 13.431 12.0261 13.0262C12.4309 12.6214 12.6583 12.0724 12.6583 11.5C12.6583 10.9275 12.4309 10.3785 12.0261 9.97373C11.6214 9.56894 11.0724 9.34154 10.4999 9.34154ZM8.34145 22.2922C8.07165 22.2922 7.84501 22.0979 7.80184 21.8389L7.40253 18.979C6.72262 18.7092 6.13984 18.3422 5.57865 17.9106L2.89139 19.0006C2.65396 19.0869 2.36257 19.0006 2.23306 18.7631L0.074618 15.029C0.00856487 14.9178 -0.0147213 14.7864 0.00911423 14.6593C0.0329497 14.5321 0.102275 14.418 0.204125 14.3383L2.48128 12.5468L2.40574 11.5L2.48128 10.4208L0.204125 8.66163C0.102275 8.58191 0.0329497 8.46782 0.00911423 8.3407C-0.0147213 8.21358 0.00856487 8.08212 0.074618 7.97092L2.23306 4.23682C2.36257 3.99939 2.65396 3.90226 2.89139 3.99939L5.57865 5.07861C6.13984 4.65771 6.72262 4.29078 7.40253 4.02097L7.80184 1.16104C7.84501 0.902024 8.07165 0.707764 8.34145 0.707764H12.6583C12.9281 0.707764 13.1548 0.902024 13.1979 1.16104L13.5973 4.02097C14.2772 4.29078 14.86 4.65771 15.4211 5.07861L18.1084 3.99939C18.3458 3.90226 18.6372 3.99939 18.7667 4.23682L20.9252 7.97092C21.0655 8.20835 21.0007 8.49974 20.7957 8.66163L18.5185 10.4208L18.5941 11.5L18.5185 12.5792L20.7957 14.3383C21.0007 14.5002 21.0655 14.7916 20.9252 15.029L18.7667 18.7631C18.6372 19.0006 18.3458 19.0977 18.1084 19.0006L15.4211 17.9213C14.86 18.3422 14.2772 18.7092 13.5973 18.979L13.1979 21.8389C13.1548 22.0979 12.9281 22.2922 12.6583 22.2922H8.34145ZM9.69048 2.86621L9.29117 5.68297C7.9961 5.95278 6.85213 6.64348 6.02113 7.60399L3.4202 6.4816L2.61079 7.88459L4.88795 9.55738C4.45626 10.8165 4.45626 12.1835 4.88795 13.4426L2.6 15.1262L3.40941 16.5292L6.03192 15.4068C6.86292 16.3565 7.9961 17.0472 9.28038 17.3062L9.67969 20.1338H11.3201L11.7194 17.317C13.0037 17.0472 14.1369 16.3565 14.9679 15.4068L17.5904 16.5292L18.3998 15.1262L16.1118 13.4534C16.5435 12.1907 16.5435 10.8201 16.1118 9.55738L18.389 7.88459L17.5796 6.4816L14.9787 7.60399C14.1306 6.62225 12.9803 5.95027 11.7086 5.69377L11.3093 2.86621H9.69048Z" fill="#00395E"/>
</svg>
