<svg width="44" height="44" viewBox="0 0 44 44" fill="none" xmlns="http://www.w3.org/2000/svg">
<path d="M22 1C10.4017 1 1 10.4017 1 22C1 33.5983 10.4017 43 22 43C33.5983 43 43 33.5983 43 22C43 10.4017 33.5983 1 22 1Z" stroke="#00395E" stroke-width="1.5" stroke-linecap="round" stroke-linejoin="round"/>
<path d="M5.76904 35.3265C5.76904 35.3265 10.4499 29.3499 21.9999 29.3499C33.5499 29.3499 38.2329 35.3265 38.2329 35.3265M21.9999 21.9999C23.6708 21.9999 25.2732 21.3362 26.4547 20.1547C27.6362 18.9732 28.2999 17.3708 28.2999 15.6999C28.2999 14.029 27.6362 12.4266 26.4547 11.2451C25.2732 10.0637 23.6708 9.3999 21.9999 9.3999C20.3291 9.3999 18.7266 10.0637 17.5452 11.2451C16.3637 12.4266 15.6999 14.029 15.6999 15.6999C15.6999 17.3708 16.3637 18.9732 17.5452 20.1547C18.7266 21.3362 20.3291 21.9999 21.9999 21.9999V21.9999Z" stroke="#00395E" stroke-width="1.5" stroke-linecap="round" stroke-linejoin="round"/>
</svg>
